<svg width="24" height="24" viewBox="0 0 24 24" fill="#151B1E" xmlns="http://www.w3.org/2000/svg">
<path d="M15.4249 10.3829H12.8369L12.2396 11.5086C12.1779 11.6404 12.1056 11.767 12.0234 11.8871H11.9963C11.9963 11.8871 11.8734 11.6978 11.78 11.5209L11.1828 10.3829H8.60216L10.6347 13.578L8.60216 16.8026H11.1459L11.8316 15.4926C11.8919 15.3767 11.9461 15.2578 11.9939 15.1362H12.0209C12.0679 15.2581 12.122 15.3771 12.1831 15.4926L12.8811 16.8026H15.4273L13.4022 13.6075L15.4224 10.4124L15.4249 10.3829ZM3.95946 15.2198C3.79432 15.2237 3.63002 15.195 3.47599 15.1353C3.32195 15.0756 3.18121 14.9862 3.0618 14.872C2.9424 14.7579 2.84669 14.6213 2.78015 14.4701C2.71362 14.3189 2.67756 14.1561 2.67405 13.9909C2.69057 13.501 2.89367 13.0359 3.24179 12.6908C4.28634 13.1676 5.24241 13.5264 5.24241 14.1408C5.24241 14.8364 4.75086 15.2198 3.95946 15.2198ZM4.03319 8.78046C4.73611 8.78046 5.15393 9.16879 5.15393 9.76356C5.14409 10.2266 5.01545 10.6794 4.78035 11.0785C3.83903 10.6754 3.05992 10.3166 3.05992 9.60381C3.06238 9.15404 3.36222 8.78046 4.03319 8.78046ZM6.66299 12.0075C6.76621 11.8723 7.70754 10.7221 7.70754 9.57186C7.70754 7.58599 6.0805 6.48 4.09218 6.48C1.59756 6.48 0.508771 8.00381 0.508771 9.55711C0.504677 9.94916 0.589459 10.337 0.756748 10.6916C0.924038 11.0462 1.16949 11.3583 1.47467 11.6044C1.14533 11.8502 1.52588e-05 12.8333 1.52588e-05 14.2047C1.52588e-05 15.908 1.35915 17.5202 3.95946 17.5202C6.604 17.5202 7.9189 15.8932 7.9189 14.2637C7.9189 13.1872 7.37328 12.5015 6.66299 12.0075ZM20.0356 15.2198C19.8705 15.2237 19.7062 15.195 19.5522 15.1353C19.3981 15.0756 19.2574 14.9862 19.138 14.872C19.0186 14.7579 18.9229 14.6213 18.8563 14.4701C18.7898 14.3189 18.7537 14.1561 18.7502 13.9909C18.7667 13.501 18.9698 13.0359 19.318 12.6908C20.3625 13.1676 21.321 13.5264 21.321 14.1408C21.321 14.8437 20.8295 15.2321 20.0356 15.2321V15.2198ZM20.1118 8.78046C20.8147 8.78046 21.2326 9.16879 21.2326 9.76356C21.2227 10.2266 21.0941 10.6794 20.859 11.0785C19.9177 10.6754 19.1386 10.3166 19.1386 9.60381C19.1386 9.15404 19.4384 8.78046 20.1094 8.78046H20.1118ZM22.7416 12.0075C22.8473 11.8723 23.7862 10.7221 23.7862 9.57186C23.7862 7.58599 22.1567 6.48 20.1708 6.48C17.6762 6.48 16.5849 8.00381 16.5849 9.55711C16.5816 9.94953 16.6672 10.3376 16.8354 10.6922C17.0035 11.0468 17.2498 11.3587 17.5558 11.6044C17.2264 11.8502 16.0811 12.8333 16.0811 14.2047C16.0811 15.908 17.4402 17.5202 20.0406 17.5202C22.6851 17.5202 24 15.8932 24 14.2637C24 13.1872 23.4568 12.5015 22.7392 12.0075H22.7416Z"/>
</svg>
