<svg width="24" height="24" viewBox="0 0 24 24" fill="#151B1E" xmlns="http://www.w3.org/2000/svg">
<path fill-rule="evenodd" clip-rule="evenodd" d="M11.9999 4.84999C8.05107 4.84999 4.8499 8.05116 4.8499 12C4.8499 12.6953 4.94915 13.3674 5.13425 14.003C5.08974 14.001 5.04499 14 5 14C4.44631 14 3.92766 14.15 3.48246 14.4116C3.26582 13.6449 3.1499 12.836 3.1499 12C3.1499 7.11227 7.11218 3.14999 11.9999 3.14999C16.8876 3.14999 20.8499 7.11227 20.8499 12C20.8499 16.8877 16.8876 20.85 11.9999 20.85C11.164 20.85 10.3551 20.7341 9.58846 20.5175C9.85001 20.0723 10 19.5537 10 19C10 18.9996 10 18.9993 10 18.9989C10 18.9964 10 18.994 9.99999 18.9916C9.99987 18.9494 9.99889 18.9074 9.99705 18.8657C9.94 17.571 9.06235 16.4895 7.87146 16.1285C7.80861 15.9212 7.72391 15.7233 7.62003 15.5376C8.95852 14.8469 10.8235 14.5 12 14.5C13.6149 14.5 16.5274 15.1536 17.5943 16.453C18.568 15.2314 19.1499 13.6837 19.1499 12C19.1499 8.05116 15.9487 4.84999 11.9999 4.84999ZM5 15.75C5.41421 15.75 5.75 16.0858 5.75 16.5V18.25H7.5C7.91421 18.25 8.25 18.5858 8.25 19C8.25 19.4142 7.91421 19.75 7.5 19.75H5.75V21.5C5.75 21.9142 5.41421 22.25 5 22.25C4.58579 22.25 4.25 21.9142 4.25 21.5V19.75H2.5C2.08579 19.75 1.75 19.4142 1.75 19C1.75 18.5858 2.08579 18.25 2.5 18.25H4.25V16.5C4.25 16.0858 4.58579 15.75 5 15.75ZM15 10C15 11.6575 13.6575 13 12 13C10.3425 13 9 11.6575 9 10C9 8.3425 10.3425 7 12 7C13.6575 7 15 8.3425 15 10Z"/>
</svg>
