<svg width="24" height="24" viewBox="0 0 24 24" fill="#151B1E" xmlns="http://www.w3.org/2000/svg">
<path fill-rule="evenodd" clip-rule="evenodd" d="M4.8499 12C4.8499 8.05116 8.05107 4.84999 11.9999 4.84999C15.9487 4.84999 19.1499 8.05116 19.1499 12C19.1499 13.6837 18.568 15.2314 17.5943 16.453C16.5274 15.1536 13.6149 14.5 12 14.5C10.385 14.5 7.47241 15.1537 6.40565 16.4532C5.43188 15.2315 4.8499 13.6837 4.8499 12ZM11.9999 3.14999C7.11218 3.14999 3.1499 7.11227 3.1499 12C3.1499 16.8877 7.11218 20.85 11.9999 20.85C16.8876 20.85 20.8499 16.8877 20.8499 12C20.8499 7.11227 16.8876 3.14999 11.9999 3.14999ZM15 10C15 11.6575 13.6575 13 12 13C10.3425 13 9 11.6575 9 10C9 8.3425 10.3425 7 12 7C13.6575 7 15 8.3425 15 10Z"/>
</svg>
