<svg width="24" height="24" viewBox="0 0 24 24" fill="#151B1E" xmlns="http://www.w3.org/2000/svg">
<path fill-rule="evenodd" clip-rule="evenodd" d="M4.95711 3.54289C4.56658 3.15237 3.93342 3.15237 3.54289 3.54289C3.15237 3.93342 3.15237 4.56658 3.54289 4.95711L9 10.4142V11.828V12.172V16C9 16.553 9.447 17 10 17H13C13.723 17 14.3862 16.7443 14.9042 16.3184L19.0429 20.4571C19.4334 20.8476 20.0666 20.8476 20.4571 20.4571C20.8476 20.0666 20.8476 19.4334 20.4571 19.0429L4.95711 3.54289ZM13.4693 14.8836L11 12.4142V13.828V14.172V15H11.828H12.172H13C13.1697 15 13.3294 14.9579 13.4693 14.8836ZM19.6263 15L21.4671 16.8407C22.6495 16.4384 23.5 15.3186 23.5 14C23.5 12.343 22.157 11 20.5 11C19.947 11 19.5 10.553 19.5 10C19.5 9.447 19.947 9 20.5 9H22C22.553 9 23 8.553 23 8C23 7.447 22.553 7 22 7H20.5C18.9213 7 17.5 8.40907 17.5 10C17.5 11.657 18.843 13 20.5 13C21.053 13 21.5 13.447 21.5 14C21.5 14.553 21.053 15 20.5 15H19.6263ZM11.6263 7L16 11.3737V10.828V10C16 8.343 14.657 7 13 7H11.6263ZM1 17C1.429 17 1.787 16.728 1.93 16.349L1.937 16.352L2.443 15H5.556L5.724 15.447L6.063 16.352L6.07 16.349C6.213 16.728 6.571 17 7 17C7.553 17 8 16.553 8 16C8 15.876 7.971 15.761 7.93 15.651C7.93 15.593 7.49533 14.4548 7.278 13.893L4.937 7.648L4.93 7.651C4.787 7.272 4.429 7 4 7C3.571 7 3.213 7.272 3.07 7.651L3.063 7.648L0.063 15.648L0.07 15.651C0.029 15.761 0 15.876 0 16C0 16.553 0.447 17 1 17ZM4 10.848L4.807 13H3.193L4 10.848Z"/>
</svg>
