<svg xmlns="http://www.w3.org/2000/svg" viewBox="0 0 24 24" fill="#151B1E" width="24px" height="24px">
  <path d="M 3 4 C 1.898438 4 1 4.898438 1 6 L 1 18 C 1 19.101562 1.898438 20 3 20 L 21 20 C 22.101562 20 23 19.101562 23 18 L 23 6 C 23 4.898438 22.101562 4 21 4 Z M 6 9 C 7.105469 9 8 9.894531 8 11 L 8 14.5 C 8 14.777344 7.777344 15 7.5 15 C 7.222656 15 7 14.777344 7 14.5 L 7 13 L 5 13 L 5 14.5 C 5 14.777344 4.777344 15 4.5 15 C 4.222656 15 4 14.777344 4 14.5 L 4 11 C 4 9.894531 4.894531 9 6 9 Z M 11.007812 9 L 12.050781 9 C 12.355469 9 12.628906 9.050781 12.871094 9.148438 C 13.109375 9.246094 13.3125 9.386719 13.480469 9.5625 C 13.648438 9.738281 13.777344 9.949219 13.867188 10.191406 C 13.957031 10.433594 14 10.703125 14 10.988281 C 14 10.992188 14 10.996094 14 11 L 14 13 C 14 13.003906 14 13.007812 14 13.015625 C 14 13.300781 13.957031 13.5625 13.867188 13.808594 C 13.777344 14.050781 13.648438 14.261719 13.480469 14.4375 C 13.3125 14.613281 13.109375 14.753906 12.871094 14.851562 C 12.628906 14.953125 12.355469 15 12.050781 15 L 11.007812 15 C 10.457031 15 10.007812 14.550781 10.007812 14 L 10.007812 10 C 10.007812 9.449219 10.457031 9 11.007812 9 Z M 17.96875 9.007812 C 18.335938 9.007812 18.625 9.082031 18.964844 9.257812 C 19.289062 9.429688 19.546875 9.671875 19.730469 9.980469 C 19.792969 10.089844 19.847656 10.210938 19.894531 10.335938 C 19.980469 10.597656 19.839844 10.882812 19.582031 10.972656 C 19.316406 11.066406 19.035156 10.921875 18.949219 10.660156 C 18.925781 10.601562 18.898438 10.542969 18.871094 10.492188 C 18.78125 10.34375 18.660156 10.230469 18.496094 10.144531 C 18.320312 10.050781 18.199219 10.007812 17.96875 10.007812 C 17.617188 10.007812 17.449219 10.097656 17.261719 10.257812 C 17.082031 10.414062 17 10.597656 17 10.835938 C 17 10.996094 17.105469 11.164062 17.265625 11.265625 C 17.382812 11.34375 17.699219 11.414062 17.976562 11.480469 C 18.621094 11.632812 19.359375 11.804688 19.738281 12.347656 C 19.914062 12.597656 20 12.914062 20 13.28125 C 20 13.761719 19.640625 15.007812 18 15.007812 C 16.980469 15.007812 16.273438 14.5 16.066406 13.613281 C 16 13.347656 16.167969 13.078125 16.4375 13.011719 C 16.707031 12.949219 16.972656 13.117188 17.039062 13.382812 C 17.105469 13.675781 17.277344 14.007812 18 14.007812 C 18.90625 14.007812 18.996094 13.449219 19 13.273438 C 19 13.128906 18.972656 13 18.917969 12.921875 C 18.757812 12.691406 18.171875 12.554688 17.746094 12.457031 C 17.359375 12.367188 16.992188 12.28125 16.730469 12.113281 C 16.28125 11.828125 16 11.339844 16 10.835938 C 16 10.3125 16.207031 9.851562 16.601562 9.507812 C 17 9.15625 17.410156 9.007812 17.964844 9.007812 Z M 6 10 C 5.449219 10 5 10.449219 5 11 L 5 12 L 7 12 L 7 11 C 7 10.449219 6.550781 10 6 10 Z M 11.007812 10 L 11.007812 14 L 12.050781 14 C 12.222656 14 12.371094 13.976562 12.488281 13.925781 C 12.597656 13.882812 12.683594 13.824219 12.753906 13.753906 C 12.828125 13.671875 12.882812 13.578125 12.929688 13.460938 C 12.972656 13.34375 12.992188 13.207031 13 13.058594 L 13 10.9375 C 12.992188 10.789062 12.972656 10.652344 12.929688 10.535156 C 12.886719 10.421875 12.828125 10.328125 12.753906 10.25 C 12.683594 10.175781 12.597656 10.117188 12.488281 10.074219 C 12.371094 10.023438 12.222656 10 12.050781 10 Z M 11.007812 10 "/>
</svg>
