<svg width="24" height="24" viewBox="0 0 24 24" fill="#151B1E" xmlns="http://www.w3.org/2000/svg">
<path fill-rule="evenodd" clip-rule="evenodd" d="M11.99 2C6.47 2 2 6.48 2 12C2 17.52 6.47 22 11.99 22C17.52 22 22 17.52 22 12C22 6.48 17.52 2 11.99 2ZM10 9.5C10 10.33 9.33 11 8.5 11C7.67 11 7 10.33 7 9.5C7 8.67 7.67 8 8.5 8C9.33 8 10 8.67 10 9.5ZM15.5 11C16.33 11 17 10.33 17 9.5C17 8.67 16.33 8 15.5 8C14.67 8 14 8.67 14 9.5C14 10.33 14.67 11 15.5 11ZM16.75 14.75C15.8 16.39 14.03 17.5 12 17.5C9.97 17.5 8.2 16.39 7.25 14.75C7.06 14.42 7.31 14 7.69 14H16.31C16.7 14 16.94 14.42 16.75 14.75Z"/>
</svg>
