<svg width="24" height="24" viewBox="0 0 24 24" fill="#151B1E" xmlns="http://www.w3.org/2000/svg">
<path fill-rule="evenodd" clip-rule="evenodd" d="M7 4.25C5.48122 4.25 4.25 5.48122 4.25 7V17C4.25 18.5188 5.48122 19.75 7 19.75H17C18.5188 19.75 19.75 18.5188 19.75 17V7C19.75 5.48122 18.5188 4.25 17 4.25H7ZM5.75 7C5.75 6.30964 6.30964 5.75 7 5.75H17C17.6904 5.75 18.25 6.30964 18.25 7V17C18.25 17.6904 17.6904 18.25 17 18.25H7C6.30964 18.25 5.75 17.6904 5.75 17V7ZM12.5 9.25H9.25V12.5C9.25 12.9142 8.91421 13.25 8.5 13.25C8.08579 13.25 7.75 12.9142 7.75 12.5V8.75C7.75 8.19772 8.19772 7.75 8.75 7.75H12.5C12.9142 7.75 13.25 8.08579 13.25 8.5C13.25 8.91421 12.9142 9.25 12.5 9.25Z"/>
</svg>
