<svg width="24" height="24" viewBox="0 0 24 24" fill="#151B1E" xmlns="http://www.w3.org/2000/svg">
<path fill-rule="evenodd" clip-rule="evenodd" d="M6 4.25C5.0335 4.25 4.25 5.0335 4.25 6V9.5C4.25 10.4665 5.0335 11.25 6 11.25H9.5C10.4665 11.25 11.25 10.4665 11.25 9.5V6C11.25 5.0335 10.4665 4.25 9.5 4.25H6ZM5.75 6C5.75 5.86193 5.86193 5.75 6 5.75H9.5C9.63807 5.75 9.75 5.86193 9.75 6V9.5C9.75 9.63807 9.63807 9.75 9.5 9.75H6C5.86193 9.75 5.75 9.63807 5.75 9.5V6Z"/>
<path fill-rule="evenodd" clip-rule="evenodd" d="M6 12.75C5.0335 12.75 4.25 13.5335 4.25 14.5V18C4.25 18.9665 5.0335 19.75 6 19.75H9.5C10.4665 19.75 11.25 18.9665 11.25 18V14.5C11.25 13.5335 10.4665 12.75 9.5 12.75H6ZM5.75 14.5C5.75 14.3619 5.86193 14.25 6 14.25H9.5C9.63807 14.25 9.75 14.3619 9.75 14.5V18C9.75 18.1381 9.63807 18.25 9.5 18.25H6C5.86193 18.25 5.75 18.1381 5.75 18V14.5Z"/>
<path fill-rule="evenodd" clip-rule="evenodd" d="M12.75 14.5C12.75 13.5335 13.5335 12.75 14.5 12.75H18C18.9665 12.75 19.75 13.5335 19.75 14.5V18C19.75 18.9665 18.9665 19.75 18 19.75H14.5C13.5335 19.75 12.75 18.9665 12.75 18V14.5ZM14.5 14.25C14.3619 14.25 14.25 14.3619 14.25 14.5V18C14.25 18.1381 14.3619 18.25 14.5 18.25H18C18.1381 18.25 18.25 18.1381 18.25 18V14.5C18.25 14.3619 18.1381 14.25 18 14.25H14.5Z"/>
<path fill-rule="evenodd" clip-rule="evenodd" d="M14.5 4.25C13.5335 4.25 12.75 5.0335 12.75 6V9.5C12.75 10.4665 13.5335 11.25 14.5 11.25H18C18.9665 11.25 19.75 10.4665 19.75 9.5V6C19.75 5.0335 18.9665 4.25 18 4.25H14.5ZM14.25 6C14.25 5.86193 14.3619 5.75 14.5 5.75H18C18.1381 5.75 18.25 5.86193 18.25 6V9.5C18.25 9.63807 18.1381 9.75 18 9.75H14.5C14.3619 9.75 14.25 9.63807 14.25 9.5V6Z"/>
</svg>
