<svg width="24" height="24" viewBox="0 0 24 24" fill="#151B1E" xmlns="http://www.w3.org/2000/svg">
<path fill-rule="evenodd" clip-rule="evenodd" d="M2 5C2 3.34315 3.34315 2 5 2H19C20.6569 2 22 3.34315 22 5V19C22 20.6569 20.6569 22 19 22H5C3.34315 22 2 20.6569 2 19V5ZM5 4C4.44772 4 4 4.44772 4 5V19C4 19.5523 4.44772 20 5 20H6V4H5ZM19 20H8V12.9989H13.9849V14.7889C13.9849 15.2389 14.5249 15.4589 14.8349 15.1389L17.6149 12.3489C17.8149 12.1589 17.8149 11.8389 17.6249 11.6489L14.8449 8.85893C14.5349 8.53893 13.9949 8.76893 13.9949 9.20893V10.9989H8V4H19C19.5523 4 20 4.44772 20 5V19C20 19.5523 19.5523 20 19 20Z"/>
</svg>
