<svg width="24" height="24" viewBox="0 0 24 24" fill="#151B1E" xmlns="http://www.w3.org/2000/svg">
<path d="M15.4975 4.6L12.9975 6L14.3975 3.5L12.9975 1L15.4975 2.4L17.9975 1L16.5975 3.5L17.9975 6L15.4975 4.6ZM3.4975 14.4L5.9975 13L4.5975 15.5L5.9975 18L3.4975 16.6L0.997499 18L2.3975 15.5L0.997499 13L3.4975 14.4ZM0.997499 1L3.4975 2.4L5.9975 1L4.5975 3.5L5.9975 6L3.4975 4.6L0.997499 6L2.3975 3.5L0.997499 1ZM8.6275 6.29C9.0175 5.9 9.6475 5.9 10.0375 6.29L21.7075 17.96C22.0975 18.35 22.0975 18.98 21.7075 19.37L19.3675 21.71C18.9775 22.1 18.3475 22.1 17.9575 21.71L6.2975 10.05C5.9075 9.66 5.9075 9.03 6.2975 8.64L8.6275 6.29ZM9.6575 11.78L11.7775 9.66L9.3375 7.22L7.2175 9.34L9.6575 11.78Z"/>
</svg>
