<svg width="24" height="24" viewBox="0 0 24 24" fill="#151B1E" xmlns="http://www.w3.org/2000/svg">
<g clip-path="url(#clip0_5352_34668)">
<path d="M12.7178 5.67625C13.4567 5.42292 14.0056 4.72625 14.09 3.94514C14.1428 3.44903 14.0372 2.98458 13.7944 2.60458L12.4433 0.26125C12.2428 -0.0870833 11.7361 -0.0870833 11.525 0.26125L10.1739 2.60458C9.99445 2.92125 9.88889 3.29069 9.88889 3.69181C9.88889 5.08514 11.2611 6.17236 12.7178 5.67625ZM16.7817 16.274L15.7261 15.2185L14.5861 16.3479C13.2139 17.7201 10.8072 17.7307 9.42445 16.3479L8.295 15.2185L7.14444 16.3479C6.45833 17.034 5.54 17.414 4.56889 17.414C3.79833 17.414 3.09111 17.1713 2.5 16.7701V19.5807C2.5 20.7418 3.45 21.6918 4.61111 21.6918H19.3889C20.55 21.6918 21.5 20.7418 21.5 19.5807V16.7701C20.7083 17.3085 19.695 17.5618 18.6078 17.319C17.9111 17.1712 17.2883 16.7807 16.7817 16.274ZM18.3333 8.96958H13.0556V7.91403C13.0556 7.33347 12.5806 6.85847 12 6.85847C11.4194 6.85847 10.9444 7.33347 10.9444 7.91403V8.96958H5.66667C3.91444 8.96958 2.5 10.384 2.5 12.1363V13.6774C2.5 14.5746 3.02778 15.4401 3.88278 15.7251C4.65333 15.9785 5.48722 15.7885 6.02556 15.2396L8.28444 12.9913L10.5328 15.2396C11.335 16.0418 12.6544 16.0418 13.4567 15.2396L15.7156 12.9913L17.9639 15.2396C18.4178 15.6935 19.0511 15.9046 19.7056 15.8201C20.7506 15.6829 21.4894 14.7013 21.4894 13.6457V12.1468C21.5 10.384 20.0856 8.96958 18.3333 8.96958Z"/>
</g>
<defs>
<clipPath id="clip0_5352_34668">
<rect width="24" height="24" fill="white"/>
</clipPath>
</defs>
</svg>
