<svg width="24" height="24" viewBox="0 0 24 24" fill="#151B1E" xmlns="http://www.w3.org/2000/svg">
<path fill-rule="evenodd" clip-rule="evenodd" d="M1.84906 3.47479C1.38051 3.47479 1 3.8575 1 4.32963V19.5073C1 19.9797 1.38015 20.3621 1.84906 20.3621H16.9528C17.4215 20.3621 17.8019 19.9794 17.8019 19.5073V4.32963C17.8019 3.85722 17.4218 3.47479 16.9528 3.47479H1.84906ZM18.9045 7.05662C18.9045 6.82026 19.0554 6.51259 19.2414 6.36929L22.6631 3.73423C22.8494 3.59079 23 3.6664 23 3.90282V19.9341C23 20.171 22.8492 20.246 22.6631 20.1027L19.2414 17.4676C19.0552 17.3242 18.9045 17.0166 18.9045 16.7804V7.05662ZM12.4804 11.7775L12.5899 11.8558C13.5289 12.4665 13.9984 13.3592 14.014 14.471C14.014 15.0661 13.8575 15.6142 13.5602 16.1153C13.2472 16.6321 12.8403 17.0236 12.3239 17.3055C11.8075 17.5874 11.1345 17.7283 10.3051 17.7283H4.71826V6.10858H10.2112C10.978 6.10858 11.6197 6.24952 12.1205 6.50008C12.6212 6.7663 13.0281 7.1578 13.3255 7.65892C13.6228 8.16004 13.7793 8.7238 13.7793 9.30322C13.7793 10.1175 13.4507 10.8536 12.809 11.48C12.7464 11.5426 12.6682 11.6209 12.5899 11.6835L12.4804 11.7775ZM10.2269 7.73722H6.5962V10.9475H10.2582C10.7746 10.9475 11.1815 10.7909 11.5101 10.4934C11.8388 10.1802 11.9953 9.80434 11.9953 9.3502C11.9953 8.86474 11.8231 8.4889 11.4945 8.19136C11.1502 7.89382 10.7433 7.73722 10.2269 7.73722ZM10.2582 15.9744C10.8528 15.9744 11.3223 15.8334 11.6666 15.5202C12.0109 15.207 12.1831 14.7999 12.1831 14.2674C12.1831 13.5784 11.8857 13.0773 11.2754 12.7797C11.025 12.6545 10.6964 12.5918 10.2895 12.5918H6.5962V15.9744H10.2582Z"/>
</svg>
