<svg width="24" height="24" viewBox="0 0 24 24" fill="#151B1E" xmlns="http://www.w3.org/2000/svg">
<path fill-rule="evenodd" clip-rule="evenodd" d="M21.2072 2.79292C21.1143 2.70006 21.0041 2.62639 20.8827 2.57613C20.7614 2.52587 20.6314 2.5 20.5001 2.5C20.3687 2.5 20.2387 2.52587 20.1174 2.57613C19.9961 2.62639 19.8858 2.70006 19.793 2.79292L12.8931 9.69276L14.3073 11.1069L21.2072 4.2071C21.3 4.11425 21.3737 4.00402 21.424 3.88269C21.4742 3.76137 21.5001 3.63133 21.5001 3.50001C21.5001 3.36869 21.4742 3.23865 21.424 3.11733C21.3737 2.99601 21.3 2.88577 21.2072 2.79292ZM12.3104 16.1397C10.7941 14.6537 9.24824 13.125 7.91071 11.568L7.69141 11.6887L7.68207 11.6939C6.19102 12.5098 4.45053 12.7443 2.79669 12.3522C2.69664 12.3296 2.59269 12.331 2.49325 12.3561C2.39382 12.3812 2.30169 12.4294 2.22433 12.4967C2.14698 12.564 2.08656 12.6486 2.04798 12.7437C2.0094 12.8387 1.99374 12.9415 2.00226 13.0437C2.17756 15.3504 3.16147 17.5212 4.78058 19.1735C6.27124 18.8453 7.68794 18.2429 8.95858 17.3972C8.29144 18.5688 7.46733 19.6437 6.50912 20.5922C7.19576 21.0573 7.92856 21.4502 8.69588 21.7648C8.77336 21.7965 8.85627 21.8127 8.93996 21.8125C9.02798 21.8125 9.11509 21.7948 9.19606 21.7603C9.27704 21.7258 9.3502 21.6753 9.41115 21.6118C10.7452 20.1715 11.8318 18.5205 12.627 16.7255L12.7135 16.5375C12.6487 16.4738 12.5853 16.4111 12.5219 16.3484C12.4522 16.2794 12.3824 16.2103 12.3104 16.1397ZM13.4078 15.1156L13.3603 15.0689C11.9469 13.6832 10.5013 12.261 9.25 10.8318L10.0099 10.4518C10.3125 10.3005 10.6551 10.2482 10.989 10.3024C11.323 10.3566 11.6314 10.5145 11.8707 10.7537L13.5278 12.4109C13.7671 12.6501 13.9249 12.9586 13.9791 13.2925C14.0333 13.6265 13.9811 13.969 13.8298 14.2716L13.4078 15.1156Z"/>
</svg>
