<svg width="24" height="24" viewBox="0 0 24 24" fill="#323232" xmlns="http://www.w3.org/2000/svg">
<path d="M19.7778 2H4.22222C3 2 2 3 2 4.22222V19.7778C2 21 3 22 4.22222 22H19.7778C21 22 22 21 22 19.7778V4.22222C22 3 21 2 19.7778 2ZM13.7333 5.92222C14.0556 5.6 14.5889 5.6 14.9111 5.92222L15.8889 6.9L16.8667 5.92222C17.1889 5.6 17.7222 5.6 18.0444 5.92222C18.3667 6.24444 18.3667 6.77778 18.0444 7.1L17.0667 8.07778L18.0444 9.05556C18.3667 9.37778 18.3667 9.91111 18.0444 10.2333C17.7222 10.5556 17.1889 10.5556 16.8667 10.2333L15.8889 9.26667L14.9111 10.2444C14.5889 10.5667 14.0556 10.5667 13.7333 10.2444C13.4111 9.92222 13.4111 9.38889 13.7333 9.06667L14.7111 8.08889L13.7333 7.11111C13.4 6.77778 13.4 6.24444 13.7333 5.92222ZM6.44444 7.24444H10.3333C10.7889 7.24444 11.1667 7.62222 11.1667 8.07778C11.1667 8.53333 10.7889 8.91111 10.3333 8.91111H6.44444C5.98889 8.91111 5.61111 8.53333 5.61111 8.07778C5.61111 7.62222 5.98889 7.24444 6.44444 7.24444ZM10.6111 16.4444H9.22222V17.8333C9.22222 18.2889 8.84444 18.6667 8.38889 18.6667C7.93333 18.6667 7.55556 18.2889 7.55556 17.8333V16.4444H6.16667C5.71111 16.4444 5.33333 16.0667 5.33333 15.6111C5.33333 15.1556 5.71111 14.7778 6.16667 14.7778H7.55556V13.3889C7.55556 12.9333 7.93333 12.5556 8.38889 12.5556C8.84444 12.5556 9.22222 12.9333 9.22222 13.3889V14.7778H10.6111C11.0667 14.7778 11.4444 15.1556 11.4444 15.6111C11.4444 16.0667 11.0667 16.4444 10.6111 16.4444ZM17.8333 17.8333H13.9444C13.4889 17.8333 13.1111 17.4556 13.1111 17C13.1111 16.5444 13.4889 16.1667 13.9444 16.1667H17.8333C18.2889 16.1667 18.6667 16.5444 18.6667 17C18.6667 17.4556 18.2889 17.8333 17.8333 17.8333ZM17.8333 15.0556H13.9444C13.4889 15.0556 13.1111 14.6778 13.1111 14.2222C13.1111 13.7667 13.4889 13.3889 13.9444 13.3889H17.8333C18.2889 13.3889 18.6667 13.7667 18.6667 14.2222C18.6667 14.6778 18.2889 15.0556 17.8333 15.0556Z"/>
</svg>
