<svg width="24" height="24" viewBox="0 0 24 24" fill="#151B1E" xmlns="http://www.w3.org/2000/svg">
<path fill-rule="evenodd" clip-rule="evenodd" d="M19 3H20C21.1 3 22 3.9 22 5V20C22 21.1 21.1 22 20 22H4C2.9 22 2 21.1 2 20V5C2 3.9 2.9 3 4 3H5V2C5 1.45 5.45 1 6 1C6.55 1 7 1.45 7 2V3H17V2C17 1.45 17.45 1 18 1C18.55 1 19 1.45 19 2V3ZM5 20H19C19.55 20 20 19.55 20 19V8H4V19C4 19.55 4.45 20 5 20ZM14 13C13.4477 13 13 13.4477 13 14V17C13 17.5523 13.4477 18 14 18H17C17.5523 18 18 17.5523 18 17V14C18 13.4477 17.5523 13 17 13H14Z"/>
</svg>
