<svg width="24" height="24" viewBox="0 0 24 24" fill="#151B1E" xmlns="http://www.w3.org/2000/svg">
<path d="M12.112 8.46786L12.4372 7.48723L14.1882 9.23825L14.1914 9.2404L14.5434 9.59341L15.4651 9.12988V11.6063H22.934L15.4651 9.12988L21.5756 6.06334L19.4694 3.95817L12.4372 7.48723L14.5884 1H11.611L9.13347 8.46786H12.112Z"/>
<path d="M9.24077 9.73718L9.23862 9.7404L7.48653 11.4914L8.46715 11.8166V12.3177H0.999283V9.34019L7.48653 11.4914L3.95747 4.45925L6.0637 2.35301L9.5927 9.38525L9.24077 9.73718Z"/>
<path d="M15.4651 11.6063H22.934V14.5849L16.4458 12.4336L19.9747 19.4658L17.8696 21.572L14.3406 14.5387L16.4458 12.4336L15.4651 12.1084V11.6063Z"/>
<path d="M11.8213 15.4572L9.34377 22.9251H12.3223L14.7987 15.4572H11.8213Z"/>
<path d="M4.46282 19.9669L2.35766 17.8617L8.46715 14.7952L9.3899 14.3316L9.74184 14.6836L9.74397 14.6868L11.4951 16.4379L4.46282 19.9669Z"/>
<path d="M8.46715 14.7952L0.999283 12.3177H8.46715L8.46715 14.7952Z"/>
</svg>
