<svg width="24" height="24" viewBox="0 0 24 24" fill="#151B1E" xmlns="http://www.w3.org/2000/svg">
<path d="M12 7.46898C13.6392 7.46898 14.9681 6.14013 14.9681 4.50097C14.9681 2.86177 13.6392 1.53296 12 1.53296C10.3608 1.53296 9.03203 2.86177 9.03203 4.50097C9.03203 6.14017 10.3608 7.46898 12 7.46898ZM20.7367 16.1588L20.733 16.155C20.2283 15.645 18.167 13.3953 18.1513 13.3726C18.0161 13.1751 16.5432 9.26148 16.4706 9.11115C16.4432 9.05418 16.0994 8.31101 15.2134 8.31101C15.2134 8.31101 8.77486 8.31161 8.76991 8.3127C8.2052 8.32526 7.67971 8.67813 7.47488 9.24082L5.87348 13.323L3.26011 16.162C2.91458 16.5136 2.8841 17.0767 3.2051 17.4649C3.54796 17.8795 4.1621 17.9377 4.57673 17.5948C5.55087 16.7892 7.28881 15.379 7.80515 14.6772C7.80515 14.6772 8.7236 13.0515 8.79053 12.9212C9.09871 14.6173 8.69697 15.9542 8.34432 16.5106C7.84381 17.3004 4.66096 18.3614 4.30793 20.2376C4.1687 20.9779 4.62507 22.4671 6.5528 22.4671H8.49995C8.26666 22.1093 8.04777 21.57 8.10196 20.9247C8.14647 20.3839 8.37773 19.761 9.00496 19.2498C10.2869 18.1984 12.5156 18.2668 14.9693 18.1811C15.1401 18.1751 15.2835 18.3088 15.2894 18.4797C15.295 18.6388 15.1795 18.774 15.0258 18.7967L15.0234 18.797C14.0575 18.9361 11.4936 19.3416 10.8554 19.577C10.0162 19.8856 9.48822 20.3562 9.45657 21.022C9.42031 21.7651 10.1526 22.3373 11.2602 22.4671H17.4473C19.3751 22.4671 19.8315 20.9779 19.6922 20.2376C19.3392 18.3615 16.1563 17.3004 15.6559 16.5106C15.3032 15.9542 14.9014 14.6172 15.2096 12.9212C15.5279 13.5412 15.8313 14.0897 16.195 14.6772C16.7003 15.364 18.5618 16.8823 19.4234 17.5948C19.8044 17.9076 20.3714 17.8909 20.7294 17.5366C21.1119 17.1582 21.1152 16.5413 20.7367 16.1588Z"/>
</svg>
