<svg width="24" height="24" viewBox="0 0 24 24" fill="#151B1E" xmlns="http://www.w3.org/2000/svg">
<path d="M16.6667 7.33334C16.4067 7.07334 15.9867 7.07334 15.7267 7.33334L12 11.06L8.27332 7.39334C8.01332 7.13334 7.59332 7.13334 7.33332 7.39334C7.07332 7.65334 7.07332 8.07334 7.33332 8.33334L11.06 12L7.33332 15.7267C7.07332 15.9867 7.07332 16.4067 7.33332 16.6667C7.59332 16.9267 8.01332 16.9267 8.27332 16.6667L12 12.94L15.7267 16.6667C15.9867 16.9267 16.4067 16.9267 16.6667 16.6667C16.9267 16.4067 16.9267 15.9867 16.6667 15.7267L12.94 12L16.6667 8.26667C16.92 8.01334 16.92 7.58667 16.6667 7.33334Z"/>
</svg>
