<svg width="24" height="24" viewBox="0 0 24 24" fill="#151B1E" xmlns="http://www.w3.org/2000/svg">
<path d="M20.6451 3.36708C20.1718 2.89382 19.4073 2.89382 18.934 3.36708L12 10.289L5.06598 3.35495C4.59272 2.88168 3.82821 2.88168 3.35495 3.35495C2.88168 3.82821 2.88168 4.59272 3.35495 5.06598L10.289 12L3.35495 18.934C2.88168 19.4073 2.88168 20.1718 3.35495 20.6451C3.82821 21.1183 4.59272 21.1183 5.06598 20.6451L12 13.711L18.934 20.6451C19.4073 21.1183 20.1718 21.1183 20.6451 20.6451C21.1183 20.1718 21.1183 19.4073 20.6451 18.934L13.711 12L20.6451 5.06598C21.1062 4.60485 21.1062 3.82821 20.6451 3.36708Z"/>
</svg>
