<svg width="24" height="24" viewBox="0 0 24 24" fill="#151B1E" xmlns="http://www.w3.org/2000/svg">
<path fill-rule="evenodd" clip-rule="evenodd" d="M6.20103 8.08636C7.38939 6.12958 9.54172 4.81854 12 4.81854C15.0806 4.81854 17.6769 6.86841 18.5043 9.68574C20.6944 10.1293 22.3471 12.0475 22.3471 14.3742C22.3471 17.028 20.1937 19.1814 17.5399 19.1814H7.25139C4.16233 19.1814 1.65283 16.6719 1.65283 13.5828C1.65283 10.8535 3.60864 8.57588 6.20103 8.08636ZM12 6.51854C10.0425 6.51854 8.33976 7.62864 7.49084 9.25855L7.28022 9.66294L6.82682 9.71114C4.87323 9.91883 3.35283 11.5756 3.35283 13.5828C3.35283 15.733 5.10121 17.4814 7.25139 17.4814H17.5399C19.2548 17.4814 20.6471 16.0891 20.6471 14.3742C20.6471 12.7402 19.379 11.4089 17.7582 11.2967L17.1089 11.2518L16.983 10.6131C16.5218 8.27317 14.4666 6.51854 12 6.51854Z"/>
</svg>
