<svg width="24" height="24" viewBox="0 0 24 24" fill="#151B1E" xmlns="http://www.w3.org/2000/svg">
<path fill-rule="evenodd" clip-rule="evenodd" d="M17.5108 19L18.7929 20.2821C19.1834 20.6726 19.8166 20.6726 20.2071 20.2821C20.5976 19.8916 20.5976 19.2584 20.2071 18.8679L4.70711 3.36791C4.31658 2.97738 3.68342 2.97738 3.29289 3.36791C2.90237 3.75843 2.90237 4.39159 3.29289 4.78212L5.41985 6.90908C5.39615 6.95246 5.37286 6.9961 5.35 7.04C2.34 7.36 0 9.91 0 13C0 16.31 2.69 19 6 19H17.5108ZM24 14C24 15.4941 23.3436 16.8358 22.3036 17.7523L8.44704 3.89571C9.5046 3.32437 10.7147 3 12 3C15.64 3 18.67 5.59 19.35 9.04C21.95 9.22 24 11.36 24 14Z"/>
</svg>
