<svg width="24" height="24" viewBox="0 0 24 24" fill="#151B1E" xmlns="http://www.w3.org/2000/svg">
<path fill-rule="evenodd" clip-rule="evenodd" d="M6.46859 2C6.02211 2 5.62972 2.29598 5.50706 2.72528L5.14286 4H4.5C4.22386 4 4 4.22386 4 4.5V5.5C4 5.77614 4.22386 6 4.5 6H19.5C19.7761 6 20 5.77614 20 5.5V4.5C20 4.22386 19.7761 4 19.5 4H18.8571L18.4929 2.72528C18.3703 2.29598 17.9779 2 17.5314 2H6.46859ZM5.20649 7.55677C5.17258 7.26007 5.40462 7 5.70325 7H18.2967C18.5954 7 18.8274 7.26007 18.7935 7.55677L17.1935 21.5568C17.1647 21.8093 16.9509 22 16.6967 22H7.30326C7.04908 22 6.83535 21.8093 6.80649 21.5568L5.20649 7.55677ZM10.0594 12.3617C9.09218 13.4298 8.77259 14.7646 9.16121 15.7094C9.42562 16.1658 9.69191 15.8629 9.69191 15.8629C9.97886 15.4017 10.599 14.6011 11.7921 13.8332C13.1113 12.9855 13.6928 12.0697 13.914 11.6302C13.9174 11.6176 13.9941 11.3414 13.6503 11.157C12.6055 10.7286 11.1187 11.1922 10.0594 12.3617ZM10.6187 16.9312C11.6388 17.1899 12.9712 16.7104 13.9426 15.6378C14.9744 14.4985 15.2665 13.0571 14.7509 12.1077C14.6224 11.9197 14.4623 12.0725 14.4623 12.0725C14.1838 12.5038 13.6094 13.2319 12.0781 14.3359C10.9188 15.1716 10.4344 15.884 10.2017 16.2949C10.2017 16.2949 10.0707 16.7502 10.6187 16.9312Z"/>
</svg>
