<svg width="24" height="24" viewBox="0 0 24 24" fill="#151B1E" xmlns="http://www.w3.org/2000/svg">
<path d="M12 2C6.47778 2 2 6.47778 2 12C2 17.5222 6.47778 22 12 22C12.9222 22 13.6667 21.2556 13.6667 20.3333C13.6667 19.9 13.5 19.5111 13.2333 19.2111C12.9778 18.9222 12.8111 18.5333 12.8111 18.1111C12.8111 17.1889 13.5556 16.4444 14.4778 16.4444H16.4444C19.5111 16.4444 22 13.9556 22 10.8889C22 5.97778 17.5222 2 12 2ZM5.88889 12C4.96667 12 4.22222 11.2556 4.22222 10.3333C4.22222 9.41111 4.96667 8.66667 5.88889 8.66667C6.81111 8.66667 7.55556 9.41111 7.55556 10.3333C7.55556 11.2556 6.81111 12 5.88889 12ZM9.22222 7.55556C8.3 7.55556 7.55556 6.81111 7.55556 5.88889C7.55556 4.96667 8.3 4.22222 9.22222 4.22222C10.1444 4.22222 10.8889 4.96667 10.8889 5.88889C10.8889 6.81111 10.1444 7.55556 9.22222 7.55556ZM14.7778 7.55556C13.8556 7.55556 13.1111 6.81111 13.1111 5.88889C13.1111 4.96667 13.8556 4.22222 14.7778 4.22222C15.7 4.22222 16.4444 4.96667 16.4444 5.88889C16.4444 6.81111 15.7 7.55556 14.7778 7.55556ZM18.1111 12C17.1889 12 16.4444 11.2556 16.4444 10.3333C16.4444 9.41111 17.1889 8.66667 18.1111 8.66667C19.0333 8.66667 19.7778 9.41111 19.7778 10.3333C19.7778 11.2556 19.0333 12 18.1111 12Z"/>
</svg>
