<svg width="24" height="24" viewBox="0 0 24 24" fill="#151B1E" xmlns="http://www.w3.org/2000/svg">
<path fill-rule="evenodd" clip-rule="evenodd" d="M6.5 2C4.84315 2 3.5 3.34315 3.5 5V15C3.5 16.1046 4.39543 17 5.5 17H6.5C7.05228 17 7.5 16.5523 7.5 16C7.5 15.4477 7.05228 15 6.5 15H5.5V5C5.5 4.44772 5.94772 4 6.5 4H13.5V5C13.5 5.55228 13.9477 6 14.5 6C15.0523 6 15.5 5.55228 15.5 5V4C15.5 2.89543 14.6046 2 13.5 2H6.5ZM8.5 9C8.5 7.89543 9.39543 7 10.5 7H18.5C19.6046 7 20.5 7.89543 20.5 9V20C20.5 21.1046 19.6046 22 18.5 22H10.5C9.39543 22 8.5 21.1046 8.5 20V9Z"/>
</svg>
