<svg width="24" height="24" viewBox="0 0 24 24" fill="#151B1E" xmlns="http://www.w3.org/2000/svg">
<path fill-rule="evenodd" clip-rule="evenodd" d="M7.88128 3.88128C8.22299 3.53957 8.77701 3.53957 9.11872 3.88128L10.5442 5.30677C11.0097 5.18809 11.4975 5.125 12 5.125C12.5025 5.125 12.9903 5.18809 13.4558 5.30677L14.8813 3.88128C15.223 3.53957 15.777 3.53957 16.1187 3.88128C16.4604 4.22299 16.4604 4.77701 16.1187 5.11872L15.1789 6.0585C15.9839 6.57743 16.6539 7.2877 17.1247 8.125H19C19.4832 8.125 19.875 8.51675 19.875 9C19.875 9.48325 19.4832 9.875 19 9.875H17.7674C17.838 10.2391 17.875 10.6152 17.875 11V12.125H19C19.4832 12.125 19.875 12.5168 19.875 13C19.875 13.4832 19.4832 13.875 19 13.875H17.875V15C17.875 15.3848 17.838 15.7609 17.7674 16.125H19C19.4832 16.125 19.875 16.5168 19.875 17C19.875 17.4832 19.4832 17.875 19 17.875H17.1247C16.1181 19.6655 14.2003 20.875 12 20.875C9.79972 20.875 7.88195 19.6655 6.87533 17.875H5C4.51675 17.875 4.125 17.4832 4.125 17C4.125 16.5168 4.51675 16.125 5 16.125H6.2326C6.16199 15.7609 6.125 15.3848 6.125 15V13.875H5C4.51675 13.875 4.125 13.4832 4.125 13C4.125 12.5168 4.51675 12.125 5 12.125H6.125V11C6.125 10.6152 6.16199 10.2391 6.2326 9.875H5C4.51675 9.875 4.125 9.48325 4.125 9C4.125 8.51675 4.51675 8.125 5 8.125H6.87533C7.34607 7.2877 8.01608 6.57743 8.82107 6.0585L7.88128 5.11872C7.53957 4.77701 7.53957 4.22299 7.88128 3.88128ZM12 6.875C9.72183 6.875 7.875 8.72183 7.875 11V15C7.875 17.2782 9.72183 19.125 12 19.125C14.2782 19.125 16.125 17.2782 16.125 15V11C16.125 8.72183 14.2782 6.875 12 6.875ZM10.125 11C10.125 10.5168 10.5168 10.125 11 10.125H13C13.4832 10.125 13.875 10.5168 13.875 11C13.875 11.4832 13.4832 11.875 13 11.875H11C10.5168 11.875 10.125 11.4832 10.125 11ZM10.125 15C10.125 14.5168 10.5168 14.125 11 14.125H13C13.4832 14.125 13.875 14.5168 13.875 15C13.875 15.4832 13.4832 15.875 13 15.875H11C10.5168 15.875 10.125 15.4832 10.125 15Z" />
</svg>
