<svg width="24" height="24" viewBox="0 0 24 24" fill="#151B1E" xmlns="http://www.w3.org/2000/svg">
<path fill-rule="evenodd" clip-rule="evenodd" d="M8.3998 1.20001H15.5998C17.588 1.20001 19.1998 2.81179 19.1998 4.80001V19.2C19.1998 21.1882 17.588 22.8 15.5998 22.8H8.3998C6.41158 22.8 4.7998 21.1882 4.7998 19.2V4.80001C4.7998 2.81179 6.41158 1.20001 8.3998 1.20001ZM8.3998 3.60001C7.73706 3.60001 7.1998 4.13727 7.1998 4.80001V16.8C7.1998 17.4628 7.73706 18 8.3998 18H15.5998C16.2625 18 16.7998 17.4628 16.7998 16.8V4.80001C16.7998 4.13727 16.2625 3.60001 15.5998 3.60001H8.3998Z"/>
</svg>
