<svg width="24" height="24" viewBox="0 0 24 24" fill="#151B1E" xmlns="http://www.w3.org/2000/svg">
<path fill-rule="evenodd" clip-rule="evenodd" d="M2.69751 8.97673H3.62774V10.8372H4.55798V11.7674H5.48821V12.6977H7.34868V11.7674H8.27892V10.8372H9.67427V9.90696H11.0696V8.97673H11.9999V2.9302H12.9301V1.99997H20.372V2.9302H21.3022V7.11626H16.651V8.04649H19.4417V8.97673H15.7208V10.8372H17.5813V12.6977H16.651V11.7674H15.7208V15.0232H14.7906V16.4186H13.8603V17.3488H12.9301V21.0698H13.8603V22H11.9999V19.2093H11.0696V18.2791H10.1394V19.2093H9.20915V20.1395H8.27892V21.0698H9.20915V22H7.34868V18.2791L6.65101 17.3488H5.48821V16.4186H4.55798V15.4884H3.62774V14.5581H2.69751V8.97673ZM14.7906 3.39532H13.8603V4.32556H14.7906V3.39532Z"/>
</svg>
