<svg width="24" height="24" viewBox="0 0 24 24" fill="#151B1E" xmlns="http://www.w3.org/2000/svg">
<path d="M11.0655 21.565L16.5207 16.1347C16.8851 15.772 17.0918 15.2721 17.0918 14.7526V4.9604C17.0918 3.88218 16.2056 3 15.1225 3H6.26021C5.47246 3 4.76348 3.4705 4.44838 4.18604L1.23827 11.6454C0.411131 13.5862 1.83894 15.7426 3.95603 15.7426H9.51955L8.58409 20.232C8.48562 20.7221 8.63332 21.222 8.98781 21.5748C9.56878 22.1433 10.4944 22.1433 11.0655 21.565ZM21.0306 3C19.9475 3 19.0612 3.88218 19.0612 4.9604V12.802C19.0612 13.8802 19.9475 14.7624 21.0306 14.7624C22.1138 14.7624 23 13.8802 23 12.802V4.9604C23 3.88218 22.1138 3 21.0306 3Z"/>
</svg>
