<svg width="24" height="24" viewBox="0 0 24 24" fill="#151B1E" xmlns="http://www.w3.org/2000/svg">
<path fill-rule="evenodd" clip-rule="evenodd" d="M15.578 9.14711H17.472C18.5321 9.14711 19.0563 10.4336 18.3058 11.184L12.8383 16.6516C12.3737 17.1161 11.6233 17.1161 11.1587 16.6516L5.69116 11.184C4.94072 10.4336 5.47675 9.14711 6.53691 9.14711H8.43089V3.19119C8.43089 2.53603 8.96692 2 9.62208 2H14.3868C15.042 2 15.578 2.53603 15.578 3.19119V9.14711ZM4 22C3.45 22 3 21.55 3 21C3 20.45 3.45 20 4 20H20C20.55 20 21 20.45 21 21C21 21.55 20.55 22 20 22H4Z"/>
</svg>
