<svg width="24" height="24" viewBox="0 0 24 24" fill="#151B1E" xmlns="http://www.w3.org/2000/svg">
<path fill-rule="evenodd" clip-rule="evenodd" d="M8.5 4.5C7.94772 4.5 7.5 4.94772 7.5 5.5V6.5C7.5 7.05228 7.94772 7.5 8.5 7.5H9.5C10.0523 7.5 10.5 7.05228 10.5 6.5V5.5C10.5 4.94772 10.0523 4.5 9.5 4.5H8.5ZM14.5 4.5C13.9477 4.5 13.5 4.94772 13.5 5.5V6.5C13.5 7.05228 13.9477 7.5 14.5 7.5H15.5C16.0523 7.5 16.5 7.05228 16.5 6.5V5.5C16.5 4.94772 16.0523 4.5 15.5 4.5H14.5ZM7.5 11.5C7.5 10.9477 7.94772 10.5 8.5 10.5H9.5C10.0523 10.5 10.5 10.9477 10.5 11.5V12.5C10.5 13.0523 10.0523 13.5 9.5 13.5H8.5C7.94772 13.5 7.5 13.0523 7.5 12.5V11.5ZM14.5 10.5C13.9477 10.5 13.5 10.9477 13.5 11.5V12.5C13.5 13.0523 13.9477 13.5 14.5 13.5H15.5C16.0523 13.5 16.5 13.0523 16.5 12.5V11.5C16.5 10.9477 16.0523 10.5 15.5 10.5H14.5ZM7.5 17.5C7.5 16.9477 7.94772 16.5 8.5 16.5H9.5C10.0523 16.5 10.5 16.9477 10.5 17.5V18.5C10.5 19.0523 10.0523 19.5 9.5 19.5H8.5C7.94772 19.5 7.5 19.0523 7.5 18.5V17.5ZM14.5 16.5C13.9477 16.5 13.5 16.9477 13.5 17.5V18.5C13.5 19.0523 13.9477 19.5 14.5 19.5H15.5C16.0523 19.5 16.5 19.0523 16.5 18.5V17.5C16.5 16.9477 16.0523 16.5 15.5 16.5H14.5Z"/>
</svg>
