<svg width="24" height="24" viewBox="0 0 24 24" fill="#151B1E" xmlns="http://www.w3.org/2000/svg">
<path d="M19.7381 11.0476H18.381V7.42857C18.381 6.43333 17.5667 5.61905 16.5714 5.61905H12.9524V4.2619C12.9524 3.01333 11.939 2 10.6905 2C9.44191 2 8.42857 3.01333 8.42857 4.2619V5.61905H4.80952C3.81429 5.61905 3.00905 6.43333 3.00905 7.42857V10.8667H4.35714C5.70524 10.8667 6.8 11.9614 6.8 13.3095C6.8 14.6576 5.70524 15.7524 4.35714 15.7524H3V19.1905C3 20.1857 3.81429 21 4.80952 21H8.24762V19.6429C8.24762 18.2948 9.34238 17.2 10.6905 17.2C12.0386 17.2 13.1333 18.2948 13.1333 19.6429V21H16.5714C17.5667 21 18.381 20.1857 18.381 19.1905V15.5714H19.7381C20.9867 15.5714 22 14.5581 22 13.3095C22 12.061 20.9867 11.0476 19.7381 11.0476Z"/>
</svg>
