<svg width="24" height="24" viewBox="0 0 24 24" fill="#151B1E" xmlns="http://www.w3.org/2000/svg">
<path fill-rule="evenodd" clip-rule="evenodd" d="M17.41 2H6.59C4.04667 2 2 4.04667 2 6.59V17.41C2 19.9533 4.04667 22 6.59 22H17.41C19.9533 22 22 19.9533 22 17.41V6.59C22 4.04667 19.9533 2 17.41 2ZM5.05 9.57667V14.4467C5.05 15.51 5.91333 16.37 6.97333 16.37H12.8333C13.8967 16.37 14.7567 15.5067 14.7567 14.4467V9.57667C14.7567 8.51334 13.8933 7.65334 12.8333 7.65334H6.97667C5.91333 7.65 5.05 8.51334 5.05 9.57667ZM17.6933 8.27334L15.4867 10.0933C15.29 10.2567 15.1767 10.4967 15.1767 10.75V13.27C15.1767 13.5233 15.2867 13.76 15.48 13.9233L17.6867 15.7767C18.19 16.1967 18.9533 15.84 18.9533 15.1867V8.86667C18.9567 8.21667 18.1967 7.85667 17.6933 8.27334Z"/>
</svg>
