<svg width="24" height="24" viewBox="0 0 24 24" fill="#151B1E" xmlns="http://www.w3.org/2000/svg">
<path fill-rule="evenodd" clip-rule="evenodd" d="M3.15788 10.9798C2.56573 10.9798 2.09916 10.4659 2.22369 9.88696C3.0469 6.06006 6.06012 3.04685 9.88703 2.22366C10.4659 2.09913 10.9798 2.56569 10.9799 3.15783L10.9799 5.00002C10.9799 5.56347 11.4367 6.02022 12.0001 6.02021C12.5636 6.0202 13.0203 5.56343 13.0203 4.99998L13.0203 3.15788C13.0203 2.56573 13.5342 2.09915 14.1131 2.22368C17.94 3.0469 20.9532 6.06009 21.7764 9.88696C21.9009 10.4659 21.4343 10.9798 20.8422 10.9798H19.0001C18.4366 10.9798 17.9798 11.4366 17.9798 12C17.9798 12.5634 18.4366 13.0202 19.0001 13.0202H20.8422C21.4343 13.0202 21.9009 13.5341 21.7764 14.113C20.9532 17.9399 17.94 20.9531 14.1131 21.7763C13.5342 21.9009 13.0203 21.4343 13.0203 20.8421V19C13.0203 18.4366 12.5635 17.9798 12.0001 17.9798C11.4366 17.9798 10.9798 18.4366 10.9798 19V20.8422C10.9798 21.4343 10.4659 21.9009 9.88702 21.7763C6.06012 20.9531 3.0469 17.9399 2.22369 14.113C2.09916 13.5341 2.56573 13.0202 3.15788 13.0202L5.00005 13.0202C5.5635 13.0202 6.02027 12.5635 6.02027 12C6.02027 11.4366 5.5635 10.9798 5.00005 10.9798L3.15788 10.9798ZM12 15C13.6569 15 15 13.6569 15 12C15 10.3431 13.6569 9 12 9C10.3432 9 9.00005 10.3431 9.00005 12C9.00005 13.6569 10.3432 15 12 15Z"/>
</svg>
