<svg width="24" height="24" viewBox="0 0 24 24" fill="#151B1E" xmlns="http://www.w3.org/2000/svg">
<path fill-rule="evenodd" clip-rule="evenodd" d="M4 4C2.89543 4 2 4.89543 2 6V18C2 19.1046 2.89543 20 4 20H20C21.1046 20 22 19.1046 22 18L23.5216 10.3922C23.7691 9.15465 22.8225 8 21.5604 8H7.63961C6.68625 8 5.86542 8.67292 5.67845 9.60777L4 18V6L6.80872 6L7.5 6H9H11.9947L10.8022 4.80869L10.7925 4.79926C10.7577 4.76542 10.7255 4.7329 10.6881 4.69507L10.686 4.69299C10.6515 4.65818 10.6087 4.61491 10.5647 4.57283C10.4732 4.48521 10.3457 4.37211 10.177 4.27244C9.81095 4.05619 9.41819 4 9 4H7.5H4ZM6.05712 18H9H19.8959L20.3604 16L21.5604 10H7.63961L6.43961 16L6.05712 18Z"/>
</svg>
