<svg width="24" height="24" viewBox="0 0 24 24" fill="#151B1E" xmlns="http://www.w3.org/2000/svg">
<path fill-rule="evenodd" clip-rule="evenodd" d="M2 6C2 4.89543 2.89543 4 4 4H7.5H9C9.41819 4 9.81095 4.05619 10.177 4.27244C10.3457 4.37211 10.4732 4.48521 10.5647 4.57283C10.6087 4.61491 10.6515 4.65818 10.686 4.69299L10.6881 4.69507C10.7255 4.7329 10.7577 4.76542 10.7925 4.79926L10.8022 4.80869L11.9947 6H12H16.5H20C21.1046 6 22 6.89543 22 8V18C22 19.1046 21.1046 20 20 20H4C2.89543 20 2 19.1046 2 18V6ZM11.1669 8L11.1669 8.00001H17.3904L20 8V18H4V8H11.1669Z"/>
</svg>
