<svg width="24" height="24" viewBox="0 0 24 24" fill="#151B1E" xmlns="http://www.w3.org/2000/svg">
<path fill-rule="evenodd" clip-rule="evenodd" d="M18.3298 19.7417C18.7574 19.3921 18.7545 18.7545 18.364 18.364L12.7071 12.7071C12.3166 12.3166 12.3166 11.6834 12.7071 11.2929L18.364 5.63604C18.7545 5.24552 18.7574 4.60789 18.3298 4.25831C17.0654 3.2245 15.5627 2.51276 13.9509 2.19215C12.0111 1.8063 10.0004 2.00433 8.17317 2.76121C6.3459 3.51809 4.78412 4.79981 3.6853 6.4443C2.58649 8.08879 2 10.0222 2 12C2 13.9778 2.58649 15.9112 3.6853 17.5557C4.78412 19.2002 6.3459 20.4819 8.17317 21.2388C10.0004 21.9957 12.0111 22.1937 13.9509 21.8079C15.5627 21.4873 17.0654 20.7755 18.3298 19.7417ZM20 14C21.1046 14 22 13.1046 22 12C22 10.8954 21.1046 10 20 10C18.8954 10 18 10.8954 18 12C18 13.1046 18.8954 14 20 14Z"/>
</svg>
