<svg width="24" height="24" viewBox="0 0 24 24" fill="#151B1E" xmlns="http://www.w3.org/2000/svg">
<path fill-rule="evenodd" clip-rule="evenodd" d="M16.4614 6.89113C15.6669 6.14552 14.2736 5.25331 12.208 5.25331C9.29917 5.25331 6.8303 7.17222 5.938 9.82444L5.93797 9.8244C5.71797 10.5088 5.58357 11.2421 5.58357 12C5.58357 12.7577 5.71797 13.4911 5.95018 14.1755L5.95013 14.1756L5.95022 14.1756C6.8303 16.8278 9.29918 18.7466 12.208 18.7466C13.8458 18.7466 15.0925 18.2944 16.0214 17.6466C17.488 16.62 18.148 15.0922 18.2702 14.0778H12.208V9.99561H22.5358C22.6946 10.68 22.768 11.34 22.768 12.2445C22.768 15.5933 21.5702 18.4167 19.4924 20.3356C17.6713 22.0222 15.178 23 12.208 23C7.90579 23 4.19022 20.531 2.38135 16.9377L2.38138 16.9377L2.38131 16.9377C1.63579 15.4466 1.20801 13.7722 1.20801 12C1.20801 10.2277 1.63579 8.55327 2.38131 7.06214L2.38138 7.06211C4.19027 3.46884 7.90581 1 12.208 1C15.178 1 17.6592 2.08778 19.5658 3.86L16.4614 6.89113Z"/>
</svg>
