<svg width="24" height="24" viewBox="0 0 24 24" fill="#151B1E" xmlns="http://www.w3.org/2000/svg">
<path d="M11.4043 10.72L15.5317 6.58635C16.7462 7.51004 17.6393 8.83498 18.0191 10.3647L12.3558 16.0406C11.8466 16.5505 11.0203 16.5505 10.5111 16.0406L6.6925 12.2163C6.28351 11.8067 6.28351 11.1463 6.6925 10.7409L8.32012 9.11083C8.72911 8.70123 9.3885 8.70123 9.79332 9.11083L11.4043 10.72ZM22.6933 4.20815L21.0364 2.54885C20.6316 2.14343 19.968 2.14343 19.5632 2.54885L18.1276 3.98664C19.2753 4.94794 20.2101 6.15167 20.8611 7.5184L22.6933 5.68355C23.1022 5.27813 23.1022 4.61358 22.6933 4.20815ZM18.2152 11.9989C18.2152 15.7522 15.177 18.7908 11.4335 18.7908C7.68994 18.7908 4.65171 15.7522 4.65171 11.9989C4.65171 8.24565 7.68576 5.20708 11.4335 5.20708C12.9734 5.20708 14.3924 5.72117 15.5317 6.59053L18.1276 3.99082C16.3163 2.46526 13.9834 1.54993 11.4335 1.54993C5.67002 1.54993 1 6.2269 1 11.9989C1 17.771 5.67002 22.4479 11.4335 22.4479C17.1969 22.4479 21.8669 17.771 21.8669 11.9989C21.8669 10.3981 21.5038 8.87677 20.8611 7.5184L18.0191 10.3689C18.1443 10.8913 18.2152 11.4389 18.2152 11.9989Z"/>
</svg>
