<svg width="24" height="24" viewBox="0 0 24 24" fill="#151B1E" xmlns="http://www.w3.org/2000/svg">
<path d="M12.0021 8.40664L12.6211 9.49487L12.6164 9.49754L14.9379 13.593H22.2086L19.4971 8.79487L16.2967 3.15385C16.0951 2.79487 15.8053 2.51282 15.4651 2.30769L12.0021 8.40664ZM12.002 8.40663L15.465 2.30769C15.1248 2.10256 14.7342 2 14.331 2H9.66894C9.26573 2 8.87513 2.11538 8.53492 2.30769L8.53494 2.30769C8.53442 2.308 8.53391 2.30831 8.53339 2.30862L12.002 8.40663ZM7.20893 4.02525L10.8536 10.4326L7.93013 15.5897H1C1.00026 15.1849 1.10451 14.7871 1.30241 14.4359L7.20893 4.02525ZM14.5 15.5898V15.593H23C22.9995 15.9893 22.8987 16.3856 22.6976 16.7436L20.7698 20.141L20.3666 20.8462C20.165 21.2051 19.8752 21.4872 19.535 21.6923C19.1947 21.8846 18.8041 22 18.4009 22H6.59191L10.2313 15.5898H14.5ZM7.93147 15.5898H7.93014H7.93013H1C1 15.9872 1.1008 16.3846 1.30241 16.7436L2.66323 19.141L3.63345 20.8462C3.83505 21.2051 4.12486 21.4872 4.46506 21.6923C4.46548 21.6926 4.4659 21.6928 4.46631 21.6931L7.93147 15.5898Z"/>
</svg>
