<svg width="24" height="24" viewBox="0 0 24 24" fill="#151B1E" xmlns="http://www.w3.org/2000/svg">
<path d="M20.6033 13.5767C20.1164 13.2842 19.5538 13.1392 18.9848 13.1593C18.4158 13.1794 17.8651 13.3639 17.4005 13.69C17.3095 13.7547 17.2017 13.7922 17.0899 13.798C16.9781 13.8038 16.8669 13.7776 16.7697 13.7226L13.8675 12.0624C13.8566 12.056 13.8475 12.0469 13.8413 12.0359C13.835 12.025 13.8317 12.0126 13.8317 12C13.8317 11.9874 13.835 11.975 13.8413 11.9641C13.8475 11.9531 13.8566 11.944 13.8675 11.9376L16.7532 10.2869C16.851 10.2314 16.9629 10.2051 17.0754 10.2111C17.1879 10.2171 17.2963 10.2552 17.3875 10.3208C17.8515 10.6506 18.4029 10.8383 18.9735 10.8609C19.544 10.8834 20.1088 10.7398 20.5978 10.4477C21.2348 10.058 21.6987 9.4432 21.8958 8.72757C22.0929 8.01193 22.0084 7.24884 21.6595 6.59253C21.3401 6.00708 20.8269 5.54857 20.2062 5.29421C19.5856 5.03986 18.8954 5.00519 18.252 5.19604C17.6086 5.38689 17.0512 5.79161 16.6736 6.34205C16.2961 6.89249 16.1215 7.55502 16.1792 8.2181C16.1896 8.32818 16.1681 8.43892 16.1171 8.53728C16.0662 8.63564 15.9879 8.71753 15.8916 8.7733L12.9908 10.4335C12.9797 10.4398 12.9671 10.443 12.9544 10.443C12.9416 10.443 12.929 10.4397 12.918 10.4334C12.9069 10.427 12.8977 10.418 12.8912 10.407C12.8848 10.3961 12.8813 10.3837 12.8812 10.371V7.05C12.8818 6.93892 12.9146 6.83036 12.9757 6.73722C13.0367 6.64409 13.1235 6.57031 13.2257 6.52466C13.831 6.24875 14.3229 5.77613 14.6198 5.18517C14.9168 4.59422 15.001 3.92043 14.8585 3.27554C14.716 2.63065 14.3553 2.05341 13.8363 1.63953C13.3172 1.22565 12.671 1 12.0048 1C11.3386 1 10.6924 1.22565 10.1734 1.63953C9.65432 2.05341 9.29364 2.63065 9.15112 3.27554C9.0086 3.92043 9.09281 4.59422 9.38978 5.18517C9.68675 5.77613 10.1786 6.24875 10.7839 6.52466C10.9928 6.61764 11.127 6.8233 11.1284 7.05V10.3704C11.1283 10.383 11.1248 10.3954 11.1184 10.4064C11.112 10.4173 11.1027 10.4264 11.0917 10.4327C11.0806 10.439 11.068 10.4423 11.0553 10.4423C11.0425 10.4424 11.0299 10.4391 11.0188 10.4328L8.11806 8.7733C8.02171 8.7177 7.94343 8.63595 7.89245 8.53769C7.84148 8.43943 7.81994 8.32877 7.83038 8.21878C7.88781 7.56124 7.71672 6.90401 7.34547 6.35606C6.97423 5.80811 6.42514 5.40235 5.78924 5.20606C5.15335 5.00978 4.46885 5.03476 3.84925 5.27687C3.22964 5.51897 2.71216 5.96366 2.3826 6.53719C2.05304 7.11072 1.93121 7.77864 2.03729 8.43021C2.14338 9.08177 2.47102 9.67783 2.96588 10.1196C3.46074 10.5613 4.0931 10.8221 4.7581 10.8589C5.4231 10.8956 6.08079 10.706 6.62213 10.3215C6.71336 10.2557 6.82181 10.2175 6.93445 10.2113C7.04709 10.2052 7.15912 10.2314 7.25708 10.2869L10.1428 11.9376C10.1537 11.944 10.1628 11.9531 10.169 11.9641C10.1753 11.975 10.1786 11.9874 10.1786 12C10.1786 12.0126 10.1753 12.025 10.169 12.0359C10.1628 12.0469 10.1537 12.056 10.1428 12.0624L7.24064 13.7226C7.14329 13.7777 7.03201 13.804 6.92005 13.7982C6.80809 13.7924 6.70016 13.7549 6.60911 13.69C6.14456 13.3641 5.59401 13.1797 5.02513 13.1595C4.45624 13.1394 3.89382 13.2844 3.40697 13.5767C2.77171 13.9671 2.30941 14.5816 2.11329 15.2964C1.91716 16.0112 2.00178 16.7731 2.3501 17.4285C2.67043 18.0151 3.18528 18.474 3.80765 18.7279C4.43001 18.9818 5.12174 19.015 5.76595 18.8219C6.41016 18.6288 6.96734 18.2212 7.34336 17.6681C7.71937 17.1149 7.89116 16.4501 7.82969 15.786C7.81861 15.6753 7.83983 15.5639 7.89083 15.4649C7.94183 15.3658 8.02046 15.2834 8.11737 15.2274L11.0188 13.5672C11.0299 13.5609 11.0425 13.5576 11.0553 13.5577C11.068 13.5577 11.0806 13.561 11.0917 13.5673C11.1027 13.5736 11.112 13.5827 11.1184 13.5936C11.1248 13.6046 11.1283 13.617 11.1284 13.6296V16.95C11.1279 17.061 11.0952 17.1695 11.0342 17.2626C10.9733 17.3558 10.8866 17.4296 10.7846 17.4753C10.1793 17.7513 9.68744 18.2239 9.39047 18.8148C9.0935 19.4058 9.00929 20.0796 9.1518 20.7245C9.29432 21.3693 9.655 21.9466 10.174 22.3605C10.6931 22.7744 11.3393 23 12.0055 23C12.6717 23 13.3179 22.7744 13.8369 22.3605C14.356 21.9466 14.7167 21.3693 14.8592 20.7245C15.0017 20.0796 14.9175 19.4058 14.6205 18.8148C14.3235 18.2239 13.8317 17.7513 13.2264 17.4753C13.1241 17.4297 13.0373 17.356 12.9761 17.2628C12.9149 17.1697 12.8819 17.0611 12.8812 16.95V13.6303C12.8813 13.6177 12.8848 13.6052 12.8912 13.5943C12.8977 13.5834 12.9069 13.5743 12.918 13.568C12.929 13.5617 12.9416 13.5584 12.9544 13.5583C12.9671 13.5583 12.9797 13.5616 12.9908 13.5679L15.8929 15.2281C16.0909 15.3428 16.2032 15.5606 16.1799 15.7867C16.1185 16.4508 16.2902 17.1156 16.6663 17.6687C17.0423 18.2219 17.5995 18.6294 18.2437 18.8225C18.8879 19.0156 19.5796 18.9825 20.202 18.7286C20.8243 18.4747 21.3392 18.0157 21.6595 17.4292C22.0079 16.7739 22.0926 16.012 21.8966 15.2973C21.7006 14.5825 21.2385 13.9679 20.6033 13.5774V13.5767Z"/>
</svg>
