<svg width="24" height="24" viewBox="0 0 24 24" fill="#151B1E" xmlns="http://www.w3.org/2000/svg">
<path fill-rule="evenodd" clip-rule="evenodd" d="M12 23C18.0751 23 23 18.0751 23 12C23 5.92487 18.0751 1 12 1C5.92487 1 1 5.92487 1 12C1 18.0751 5.92487 23 12 23ZM10.611 17.2667C10.611 18.0445 11.2332 18.6667 12.011 18.6667C12.7999 18.6667 13.3888 18.0333 13.3999 17.2667C13.3999 16.4778 12.7999 15.8778 12.011 15.8778C11.2332 15.8778 10.611 16.4778 10.611 17.2667ZM14.1316 11.8466C14.4986 11.4897 14.9211 11.0788 15.3555 10.4445C16.111 9.32223 15.8221 7.82223 15.3332 7.02223C14.7555 6.07779 13.6332 5.33334 11.9888 5.33334C10.5221 5.33334 9.3888 6.05557 8.71102 7.04445C8.35546 7.55557 8.56657 8.26668 9.15546 8.50001C9.61102 8.6889 10.0999 8.50001 10.3777 8.10001C10.6999 7.62223 11.2221 7.22223 12.011 7.22223C13.811 7.22223 14.1666 8.91112 13.5332 9.81112C13.2653 10.1931 12.9111 10.5197 12.5525 10.8503C12.108 11.2602 11.6568 11.6761 11.3555 12.2111C11.1444 12.5889 11.0555 12.9778 11.0221 13.3556C10.9666 13.9333 11.4221 14.4222 11.9999 14.4222H12.0666C12.5666 14.4222 13.011 14.0556 13.0666 13.5556C13.0999 13.2111 13.1666 13.0556 13.2777 12.8556C13.4881 12.4724 13.7851 12.1836 14.1316 11.8466Z"/>
</svg>
