<svg width="24" height="24" viewBox="0 0 24 24" fill="#151B1E" xmlns="http://www.w3.org/2000/svg">
<path fill-rule="evenodd" clip-rule="evenodd" d="M4 12C4 7.58172 7.58172 4 12 4C16.4183 4 20 7.58172 20 12C20 16.4183 16.4183 20 12 20C7.58172 20 4 16.4183 4 12ZM12 2C6.47715 2 2 6.47715 2 12C2 17.5228 6.47715 22 12 22C17.5228 22 22 17.5228 22 12C22 6.47715 17.5228 2 12 2ZM12.8 8.20001C12.8 7.64773 12.3523 7.20001 11.8 7.20001C11.2478 7.20001 10.8 7.64773 10.8 8.20001V12.2C10.8 12.4652 10.9054 12.7196 11.0929 12.9071L14.0929 15.9071C14.4835 16.2976 15.1166 16.2976 15.5072 15.9071C15.8977 15.5166 15.8977 14.8834 15.5072 14.4929L12.8 11.7858V8.20001Z" />
</svg>
