<svg width="24" height="24" viewBox="0 0 24 24" fill="#151B1E" xmlns="http://www.w3.org/2000/svg">
<path fill-rule="evenodd" clip-rule="evenodd" d="M9.57219 0.215157C9.99264 0.386778 10.1944 0.866745 10.0227 1.28719C9.7253 2.01588 9.11444 2.39479 8.74551 2.61897C8.70388 2.64426 8.66559 2.66735 8.63011 2.68875C8.48795 2.77448 8.39112 2.83287 8.3071 2.8958L8.32318 2.91199C8.39005 2.97779 8.46897 3.03822 8.53666 3.0844C8.56909 3.10653 8.59575 3.12323 8.61269 3.13349L8.62949 3.14346L8.63064 3.14412C8.64101 3.14989 8.65126 3.15589 8.66137 3.16211L8.23059 3.86251C8.66137 3.16211 8.66155 3.16222 8.66174 3.16234L8.66299 3.16311L8.66498 3.16434L8.67008 3.16752L8.68457 3.1767C8.69604 3.18403 8.71116 3.19384 8.72932 3.20596C8.76551 3.23011 8.81454 3.26391 8.87155 3.30608C8.9831 3.38859 9.13692 3.5117 9.28716 3.66523C9.43166 3.8129 9.60898 4.02497 9.72542 4.29007C9.84737 4.56772 9.92024 4.9519 9.75453 5.35788C9.6071 5.71906 9.3409 5.93851 9.14248 6.07341C9.01849 6.1577 8.84859 6.25279 8.72055 6.32444C8.6726 6.35127 8.63052 6.37482 8.59893 6.39328C8.30444 6.56539 8.09509 6.73087 7.96102 7.05932C7.78939 7.47976 7.30942 7.68148 6.88898 7.50985C6.46853 7.33823 6.26682 6.85826 6.43844 6.43781C6.77131 5.62234 7.34198 5.22308 7.76915 4.97344C7.87164 4.91354 7.94684 4.8719 8.00805 4.838L8.0081 4.83797L8.00815 4.83795L8.00817 4.83794L8.00836 4.83783L8.00849 4.83776L8.0087 4.83764C8.03824 4.82128 8.06453 4.80673 8.08906 4.79278C8.02504 4.73039 7.95427 4.67312 7.89361 4.62826C7.86089 4.60406 7.83392 4.58553 7.81655 4.57394L7.80593 4.56692C7.79393 4.55999 7.77868 4.55102 7.76069 4.54012C7.72212 4.51676 7.67008 4.48401 7.60969 4.4428C7.49174 4.36231 7.32859 4.24052 7.16969 4.08415C6.91504 3.83356 6.3577 3.17393 6.69669 2.34345C6.84076 1.99049 7.09204 1.75431 7.29879 1.5965C7.46458 1.46994 7.65946 1.35299 7.81034 1.26245C7.83918 1.24514 7.86641 1.2288 7.89152 1.21354C8.26639 0.985758 8.4268 0.84542 8.50015 0.665701C8.67178 0.245251 9.15174 0.043536 9.57219 0.215157ZM16.0483 6.90477C16.3694 6.58365 16.3694 6.06302 16.0483 5.74191C15.7272 5.42079 15.2066 5.42079 14.8854 5.74191C14.7482 5.87917 14.5459 5.9464 14.1121 6.01115C14.083 6.01549 14.0516 6.02 14.0183 6.02478C13.8441 6.0498 13.6192 6.08211 13.4173 6.13454C13.1655 6.19993 12.8424 6.32031 12.5728 6.58987C11.9385 7.22415 12.1968 8.04819 12.3344 8.37788C12.4204 8.5836 12.5236 8.75909 12.6011 8.87899C12.6408 8.94037 12.6761 8.99073 12.7026 9.02721C12.715 9.04423 12.7256 9.0584 12.7339 9.06945L12.741 9.08003C12.7525 9.09745 12.7702 9.12498 12.791 9.15997C12.8296 9.22482 12.8726 9.30504 12.9075 9.38737C12.8793 9.39073 12.8493 9.39398 12.8156 9.39763L12.8154 9.39765L12.8154 9.39765L12.8152 9.39767L12.8151 9.39768L12.815 9.39769L12.8149 9.3977C12.7454 9.40522 12.6601 9.41447 12.5425 9.42996C12.052 9.4946 11.3712 9.64157 10.7484 10.2644C10.4273 10.5855 10.4273 11.1061 10.7484 11.4273C11.0695 11.7484 11.5901 11.7484 11.9113 11.4273C12.1621 11.1764 12.4192 11.105 12.7574 11.0604C12.7936 11.0556 12.8414 11.0502 12.8958 11.0441L12.8962 11.0441C13.042 11.0276 13.2355 11.0058 13.3824 10.9761C13.6176 10.9286 13.948 10.8294 14.2239 10.5536C14.534 10.2435 14.6156 9.86112 14.6108 9.55791C14.6061 9.2684 14.5248 9.0042 14.4488 8.81208C14.3698 8.61233 14.2757 8.43924 14.2048 8.31995C14.1686 8.25899 14.1365 8.20883 14.1125 8.17254C14.1005 8.15434 14.0903 8.13944 14.0826 8.12823L14.0728 8.11416L14.0693 8.10925L14.068 8.10734L14.0671 8.10614C14.067 8.10597 14.0669 8.10579 13.3984 8.58458L14.0669 8.10579C14.0599 8.09614 14.0528 8.08664 14.0455 8.0773L14.0447 8.07624L14.0331 8.06055C14.0214 8.04453 14.0033 8.0188 13.982 7.98584C13.9375 7.91703 13.8881 7.83075 13.852 7.74418L13.8434 7.72303C13.9453 7.69757 14.0571 7.68126 14.2213 7.65731L14.2213 7.65731L14.2214 7.6573L14.2214 7.65729L14.2214 7.65729C14.2624 7.65132 14.3067 7.64486 14.3549 7.63767C14.7818 7.57394 15.4918 7.4613 16.0483 6.90477ZM5.88562 12.0277L4.74346 14.5202C7.62718 15.4946 9.88077 17.837 10.7322 20.7752L13.5583 19.7582C13.9956 19.6009 14.2351 19.1269 14.0832 18.6877C12.6849 14.6458 10.4823 12.6707 6.90167 11.5614C6.49497 11.4354 6.06299 11.6407 5.88562 12.0277ZM1.96953 23.9285L9.1806 21.3336C8.48626 18.8099 6.54112 16.8044 4.05365 16.0255L0.943595 22.8122C0.640107 23.4745 1.28407 24.1752 1.96953 23.9285ZM22.8378 9.16434C23.2536 8.98167 23.4425 8.49653 23.2599 8.08077C23.0772 7.665 22.5921 7.47605 22.1763 7.65873C21.9986 7.73681 21.7857 7.72605 21.358 7.62893C21.3293 7.62243 21.2984 7.61523 21.2656 7.6076C21.0942 7.5677 20.8729 7.51615 20.6657 7.49175C20.4074 7.46131 20.0626 7.45619 19.7136 7.60954C18.8924 7.97037 18.8339 8.83195 18.8425 9.18912C18.8479 9.41199 18.8804 9.61298 18.9092 9.75285C18.9239 9.82446 18.9385 9.88419 18.95 9.9278C18.9553 9.94815 18.96 9.9652 18.9638 9.97853L18.9666 9.99096C18.971 10.0114 18.9775 10.0434 18.9841 10.0836C18.9965 10.158 19.0075 10.2484 19.0101 10.3377C18.9827 10.3307 18.9536 10.3228 18.9209 10.314L18.9206 10.3139L18.9205 10.3139C18.853 10.2957 18.77 10.2733 18.6546 10.245C18.1741 10.1272 17.4864 10.0171 16.68 10.3714C16.2642 10.554 16.0752 11.0392 16.2579 11.4549C16.4406 11.8707 16.9257 12.0597 17.3415 11.877C17.6663 11.7343 17.9318 11.761 18.2631 11.8422C18.2986 11.851 18.3452 11.8633 18.3984 11.8774C18.5402 11.915 18.7284 11.9648 18.8761 11.9905C19.1125 12.0316 19.4564 12.0592 19.8135 11.9022C20.215 11.7258 20.4299 11.3991 20.5354 11.1148C20.6362 10.8434 20.6563 10.5677 20.6552 10.3611C20.654 10.1463 20.6292 9.95085 20.6064 9.81398C20.5948 9.74402 20.5831 9.68563 20.5739 9.6431C20.5693 9.62176 20.5652 9.60421 20.5621 9.59095L20.5581 9.57429L20.5566 9.56845L20.556 9.56618L20.5557 9.56475C20.5556 9.56454 20.5556 9.56434 19.7589 9.76786L20.5556 9.56434C20.5526 9.55283 20.5495 9.5414 20.546 9.53004L20.5457 9.52876L20.5405 9.50991C20.5355 9.49076 20.5279 9.46022 20.52 9.42176C20.5035 9.3415 20.4889 9.24318 20.4866 9.14939L20.4863 9.12658C20.5905 9.13982 20.7006 9.16522 20.8624 9.20252C20.9028 9.21183 20.9463 9.22188 20.9938 9.23266C21.4148 9.32824 22.1173 9.48094 22.8378 9.16434ZM23.6852 16.0269C23.7066 16.4805 23.3563 16.8656 22.9027 16.887C22.1165 16.9242 21.5155 16.5298 21.1568 16.2896C21.1168 16.2628 21.0801 16.238 21.0461 16.2151L21.0454 16.2147L21.0449 16.2143L21.0449 16.2143L21.0448 16.2142L21.0448 16.2142C20.9072 16.1214 20.8135 16.0582 20.7211 16.0086L20.7132 16.03C20.6817 16.1183 20.6601 16.2154 20.6467 16.2962C20.6403 16.3349 20.6364 16.3661 20.6342 16.3858L20.6323 16.4053L20.6322 16.4066L20.6308 16.4224L20.6288 16.442L19.8121 16.3463C20.6288 16.442 20.6287 16.4423 20.6287 16.4425L20.6285 16.4439L20.6283 16.4463L20.6275 16.4522L20.6253 16.4692C20.6235 16.4827 20.621 16.5006 20.6176 16.5221C20.611 16.5651 20.601 16.6238 20.5867 16.6933C20.5589 16.8292 20.512 17.0206 20.436 17.2215C20.363 17.4148 20.2453 17.6649 20.0539 17.8822C19.8535 18.1098 19.5357 18.3377 19.0977 18.3584C18.708 18.3768 18.3969 18.2278 18.191 18.1046C18.0624 18.0278 17.9048 17.9139 17.786 17.828L17.7859 17.8279L17.7857 17.8278L17.7856 17.8277L17.7856 17.8277C17.741 17.7955 17.702 17.7673 17.6719 17.7464C17.3918 17.5518 17.1535 17.4316 16.7991 17.4484C16.3455 17.4698 15.9604 17.1194 15.939 16.6658C15.9175 16.2122 16.2679 15.8271 16.7215 15.8056C17.6013 15.7641 18.2038 16.1135 18.6102 16.3958C18.7077 16.4635 18.7772 16.5142 18.8337 16.5555L18.872 16.5834L18.9087 16.6098C18.9384 16.5255 18.9605 16.4372 18.9756 16.3633C18.9838 16.3234 18.9893 16.2911 18.9925 16.2705L18.9943 16.2579C18.9956 16.2441 18.9973 16.2265 18.9996 16.2056C19.0045 16.1608 19.0123 16.0998 19.0243 16.0276C19.0476 15.8868 19.0893 15.6875 19.1642 15.4775C19.2842 15.141 19.6477 14.3577 20.5437 14.3153C20.9245 14.2973 21.2446 14.4257 21.4748 14.5468C21.6594 14.6438 21.8476 14.7713 21.9932 14.87L21.9938 14.8704L21.9956 14.8716L22.031 14.8956L22.0718 14.9231C22.4363 15.1671 22.6311 15.2535 22.825 15.2443C23.2787 15.2229 23.6638 15.5732 23.6852 16.0269ZM3.34047 8.32548C3.79459 8.32548 4.16274 7.95734 4.16274 7.50321C4.16274 7.04909 3.79459 6.68094 3.34047 6.68094C2.88634 6.68094 2.5182 7.04909 2.5182 7.50321C2.5182 7.95734 2.88634 8.32548 3.34047 8.32548ZM3.34047 12.4368C3.34047 12.891 2.97232 13.2591 2.5182 13.2591C2.06407 13.2591 1.69593 12.891 1.69593 12.4368C1.69593 11.9827 2.06407 11.6146 2.5182 11.6146C2.97232 11.6146 3.34047 11.9827 3.34047 12.4368ZM14.03 3.39186C14.4841 3.39186 14.8522 3.02372 14.8522 2.56959C14.8522 2.11547 14.4841 1.74732 14.03 1.74732C13.5758 1.74732 13.2077 2.11547 13.2077 2.56959C13.2077 3.02372 13.5758 3.39186 14.03 3.39186ZM23.0749 3.39186C23.0749 3.84599 22.7068 4.21413 22.2527 4.21413C21.7985 4.21413 21.4304 3.84599 21.4304 3.39186C21.4304 2.93774 21.7985 2.56959 22.2527 2.56959C22.7068 2.56959 23.0749 2.93774 23.0749 3.39186ZM18.1413 22.3041C18.5955 22.3041 18.9636 21.9359 18.9636 21.4818C18.9636 21.0277 18.5955 20.6595 18.1413 20.6595C17.6872 20.6595 17.3191 21.0277 17.3191 21.4818C17.3191 21.9359 17.6872 22.3041 18.1413 22.3041Z"/>
</svg>
