<svg width="24" height="24" viewBox="0 0 24 24" fill="#151B1E" xmlns="http://www.w3.org/2000/svg">
<path fill-rule="evenodd" clip-rule="evenodd" d="M11.9999 4.84999C8.05107 4.84999 4.8499 8.05116 4.8499 12C4.8499 15.9488 8.05107 19.15 11.9999 19.15C15.9487 19.15 19.1499 15.9488 19.1499 12C19.1499 8.05116 15.9487 4.84999 11.9999 4.84999ZM3.1499 12C3.1499 7.11227 7.11218 3.14999 11.9999 3.14999C16.8876 3.14999 20.8499 7.11227 20.8499 12C20.8499 16.8877 16.8876 20.85 11.9999 20.85C7.11218 20.85 3.1499 16.8877 3.1499 12ZM12.9966 10.4378C13.197 10.6147 13.2881 10.8849 13.2356 11.1471L12.4891 14.8798L12.763 14.7885C13.156 14.6575 13.5807 14.8699 13.7117 15.2628C13.8427 15.6558 13.6303 16.0805 13.2374 16.2115L11.7374 16.7115C11.4837 16.7961 11.2043 16.7392 11.0039 16.5623C10.8034 16.3853 10.7123 16.1151 10.7648 15.8529L11.5113 12.1202L11.2374 12.2115C10.8444 12.3425 10.4197 12.1301 10.2887 11.7372C10.1577 11.3442 10.3701 10.9195 10.763 10.7885L12.263 10.2885C12.5167 10.204 12.7961 10.2608 12.9966 10.4378ZM12.25 7C11.6977 7 11.25 7.44772 11.25 8C11.25 8.55228 11.6977 9 12.25 9H12.26C12.8123 9 13.26 8.55228 13.26 8C13.26 7.44772 12.8123 7 12.26 7H12.25Z"/>
</svg>
