<svg width="24" height="24" viewBox="0 0 24 24" fill="#151B1E" xmlns="http://www.w3.org/2000/svg">
<g clip-path="url(#clip0_5083_29238)">
<path d="M13.3221 13.0008C12.3705 13.2722 10.9254 13.6811 10.2401 13.6811C10.1807 13.6811 10.1265 13.676 10.0836 13.671C9.9056 13.642 9.69231 13.459 9.49037 13.1636C9.06252 12.5326 8.74195 11.4333 8.95398 10.541V10.536C9.05621 10.0526 9.39193 9.77112 9.53581 9.67268L9.54969 9.65879C9.75794 9.47579 10.1807 9.28395 10.7424 9.12114C10.8933 9.08457 11.0448 9.05007 11.1967 9.01765C11.4025 8.96344 11.6116 8.92254 11.8227 8.89523C11.8723 8.88946 11.922 8.88052 11.9677 8.87228L11.9805 8.86998C12.0537 8.85484 12.1294 8.83969 12.1925 8.83969C12.2484 8.83773 12.3035 8.85316 12.3503 8.88387C12.5573 9.13124 13.0659 9.61841 13.4003 9.6487H13.4205C13.8042 9.62977 14.4012 9.25871 15.195 8.54436C15.3192 8.43427 15.4476 8.32901 15.58 8.22884L15.5939 8.21874C15.8107 8.05261 16.0499 7.91792 16.3044 7.81866C16.2211 8.09632 16.1568 8.55951 16.4281 9.21959C16.6647 9.82836 16.8752 10.4469 17.0592 11.0736C17.4428 12.3647 17.3886 12.5919 17.3797 12.6108C17.3701 12.6553 17.3516 12.6973 17.3255 12.7345C17.3154 12.7345 17.2914 12.7307 17.2409 12.7055C17.076 12.6285 16.8925 12.4974 16.6815 12.3467L16.5758 12.2713C16.1063 11.9255 15.5207 11.4977 14.6675 11.162C14.0364 10.9158 13.4104 10.7922 12.8097 10.7922C12.5472 10.7922 12.296 10.8174 12.065 10.8616C10.7184 11.1279 10.0028 11.7236 9.62415 12.0442H9.62037C9.59614 12.065 9.57847 12.0924 9.56951 12.1231C9.56055 12.1538 9.56068 12.1864 9.56988 12.2171C9.58113 12.2472 9.60126 12.2733 9.62763 12.2918C9.654 12.3102 9.68535 12.3203 9.71755 12.3206C9.78026 12.3141 9.84181 12.2993 9.90055 12.2764C10.1227 12.212 10.5808 12.0833 11.1324 12.0202C11.2964 12 11.4428 11.9899 11.5867 11.9899C12.238 11.9899 12.8387 12.1918 13.4748 12.6209L13.5436 12.6804C13.648 12.7706 13.7192 12.8322 13.76 12.8771C13.7421 12.8828 13.724 12.8879 13.7058 12.8923L13.3221 13.0008Z"/>
<path d="M7.16795 16.5087C7.19948 16.6183 7.25372 16.72 7.32714 16.8073V16.806C7.42586 16.9169 7.549 17.0033 7.68684 17.0585C7.28675 17.3248 6.96618 17.6251 6.67085 18.0101C6.35533 18.419 6.19252 18.8178 6.08902 19.1838C5.96029 18.5667 5.80884 17.5557 5.89719 16.7669C6.07388 15.135 6.88288 14.5885 7.00152 14.5582H7.01162C7.0154 14.5582 7.0255 14.5582 7.04064 14.5784C7.10501 14.6479 7.24763 14.9432 7.14414 16.1712C7.12831 16.2841 7.13643 16.3991 7.16795 16.5087Z"/>
<path d="M7.81945 15.5339C7.84676 15.3185 7.87419 15.1022 7.87868 14.87C8.35196 15.1792 8.86942 15.5048 9.21019 15.6588C8.98806 15.8506 8.52992 16.2053 8.04653 16.4072C8.00427 16.4257 7.95886 16.436 7.91275 16.4375C7.86353 16.4375 7.83955 16.4224 7.8244 16.4022C7.80043 16.3782 7.74111 16.2848 7.76004 16.0134C7.77342 15.8801 7.78983 15.7472 7.80926 15.6146L7.81945 15.5339Z"/>
<path d="M14.6725 6.28143C14.6776 6.27638 14.6826 6.26628 14.6877 6.25618C14.731 6.16562 14.7929 6.0852 14.8694 6.02017C15.0423 5.86746 15.2985 5.66931 15.4273 5.58096C15.5259 5.72946 15.6004 5.8926 15.6481 6.06435C15.7029 6.2859 15.6928 6.51853 15.6191 6.73452C15.5068 7.00587 15.3528 7.14344 15.166 7.14344H15.1408C15.0815 7.13839 15.0171 7.11441 14.954 7.07528C14.7066 6.93772 14.5791 6.55783 14.6725 6.28143Z"/>
<path d="M15.1749 3.92509C15.0272 4.43246 14.6826 5.29068 14.1059 5.80814C13.9801 5.924 13.7328 6.0206 13.4415 6.13439L13.4205 6.1426L13.3976 6.1518C13.0817 6.27862 12.706 6.42944 12.3351 6.65122C12.3692 6.35968 12.4588 5.84853 12.6216 5.50776V5.4964C12.6746 5.37398 13.0306 5.167 13.2678 5.02943C13.2816 5.01986 13.2964 5.01143 13.311 5.0032C13.3271 4.99404 13.3429 4.98512 13.3562 4.97516C13.4608 4.92229 13.5677 4.87428 13.6767 4.83128L13.6815 4.82925C14.0704 4.66257 14.6796 4.40149 15.1749 3.92509Z"/>
<path d="M15.89 2.84296L15.8905 2.83969H15.8892L15.89 2.84296Z"/>
<path d="M15.89 2.84296C15.7915 3.47786 15.6375 4.08395 15.3427 4.72274C15.6633 4.35799 15.8513 3.96422 15.9144 3.52501L15.9148 3.52266C15.9398 3.34234 15.9644 3.16511 15.89 2.84296Z"/>
<path d="M14.0705 13.2722C14.0705 13.2772 14.0756 13.2823 14.0806 13.2873H14.0819C14.2384 13.4893 14.4782 13.6257 14.5518 13.6676C14.5661 13.6757 14.5741 13.6803 14.5741 13.6811C14.8056 13.7817 15.052 13.8435 15.3036 13.8641C15.2935 14.7312 14.8997 15.6386 14.1993 16.363C13.4385 17.1558 12.4111 17.6386 11.3154 17.7185C11.1866 17.7286 11.0541 17.7337 10.9304 17.7337C9.48659 17.7337 8.75709 17.1228 8.41633 16.7821C10.0482 16.0778 10.3789 15.0719 10.5215 14.6327L10.5606 14.5191C10.625 14.4901 10.8219 14.4017 11.434 14.1746C11.817 14.0358 12.2618 13.8848 12.6848 13.7411L13.0782 13.6074C13.4605 13.4773 13.7893 13.3654 13.9771 13.2962L13.9923 13.2924L14.025 13.2844C14.0464 13.2792 14.0609 13.2757 14.0705 13.2722Z"/>
<path d="M13.4258 8.96844C13.4092 8.96946 13.3926 8.96776 13.3766 8.96339C13.1595 8.923 12.6509 8.46991 12.5032 8.1405C12.2117 7.48421 12.2722 7.24694 12.3757 7.16364C12.5676 7.00588 12.9172 6.7888 14.0758 6.40512C14.0866 6.44704 14.0946 6.48962 14.0998 6.53259C14.1115 6.57135 14.12 6.61104 14.125 6.65123L14.127 6.66054C14.2059 7.03177 14.2943 7.44705 15.0665 7.6811C14.9933 7.83886 14.8457 8.11021 14.7914 8.15943L14.7762 8.17458L14.7611 8.19351C14.6084 8.43583 13.7906 8.96844 13.4258 8.96844Z"/>
<path d="M17.0547 7.71139C17.2516 7.71139 17.4927 7.89313 17.6858 8.19351C17.931 8.59711 18.0635 9.05911 18.0695 9.53133C18.114 10.4591 18.0346 11.3886 17.8335 12.2953C17.7451 11.581 17.4586 10.7038 17.345 10.3631C17.3382 10.3327 17.3285 10.3031 17.316 10.2747C17.3134 10.2592 17.3043 10.2339 17.2895 10.1931C17.2754 10.1541 17.2562 10.1009 17.2327 10.0286C17.0888 9.64366 16.8036 8.83971 16.7531 8.59865C16.6799 8.24778 16.8478 7.77071 16.9513 7.73032C16.9838 7.71605 17.0192 7.70956 17.0547 7.71139Z"/>
<path d="M16.7201 13.1674C16.6098 13.1996 16.4738 13.2394 16.3101 13.2823V13.281L16.2256 13.3063C15.9252 13.3555 15.674 13.3807 15.462 13.3807C14.8562 13.3807 14.6441 13.1838 14.446 12.9516C13.4704 11.7829 12.385 11.5911 11.9622 11.5608C11.8284 11.5519 11.6959 11.5519 11.5722 11.5519C11.4637 11.5519 11.3602 11.552 11.2605 11.557C11.6656 11.4182 12.1831 11.3046 12.775 11.3046C13.8553 11.3046 14.894 11.6895 15.8659 12.4443C16.2596 12.7497 16.5512 12.9718 16.8023 13.1435C16.7767 13.1509 16.7493 13.1589 16.7201 13.1674Z"/>
<path d="M15.8705 13.8634L15.8709 13.8591C15.8787 13.8577 15.8868 13.8564 15.8951 13.8549C16.0778 13.8239 16.3944 13.7702 16.7203 13.6761C16.9965 13.6072 17.2605 13.4961 17.5028 13.3466C16.926 14.7854 16.0892 15.4215 15.8368 15.5894L15.5756 15.3521C15.6658 15.1207 15.7351 14.8816 15.7826 14.6378C15.8264 14.3786 15.8553 14.0413 15.8705 13.8634Z"/>
<path fill-rule="evenodd" clip-rule="evenodd" d="M19.3223 7.76063C19.128 7.34806 18.8408 6.98605 18.4832 6.70295C18.1257 6.41984 17.7075 6.22331 17.2613 6.12874L17.1869 6.10854L17.1717 6.03029C17.1316 5.77932 17.0656 5.53317 16.9748 5.29575L16.9559 5.23644L16.9849 5.18595C17.2714 4.77539 17.4577 4.30336 17.5287 3.80777C17.5997 3.31219 17.5535 2.80685 17.3939 2.33235C17.1427 1.54354 16.9458 1.03997 16.778 0.739588C16.4372 0.128734 15.974 0 15.6395 0C15.4705 0.00117427 15.3034 0.0373252 15.149 0.106179C14.9946 0.175033 14.8561 0.275099 14.7422 0.400085C14.6266 0.528679 14.5394 0.680293 14.4866 0.84496C14.4337 1.00963 14.4163 1.18362 14.4355 1.35549C14.4708 1.71645 14.3774 2.3374 14.3181 2.55953C14.3111 2.57906 14.1966 2.89785 13.3766 3.29912C13.3348 3.31203 13.2935 3.32677 13.2529 3.34329C12.8238 3.48591 12.0249 3.75221 11.4986 4.45267C11.0985 4.93479 10.9938 5.42449 10.8814 5.98991C10.7859 6.4189 10.7444 6.85814 10.7578 7.29744V7.39083L10.6644 7.41607C9.32401 7.71141 8.35725 8.31721 7.79562 9.20951C7.21379 10.1372 7.11408 11.2907 7.50533 12.6512C7.50716 12.6604 7.51046 12.671 7.51396 12.6822C7.51769 12.6943 7.52165 12.707 7.52427 12.7194L7.58358 12.9024L7.39553 12.8721C7.35095 12.863 7.30799 12.8577 7.26418 12.8523C7.24101 12.8495 7.21761 12.8466 7.1936 12.8431C7.13614 12.8371 7.07845 12.8337 7.02069 12.833C6.37071 12.833 5.6753 13.247 5.16288 13.9373C4.76785 14.475 4.28951 15.4165 4.27058 16.8856C4.26049 17.9899 4.37912 19.0059 4.62018 19.9083C4.80319 20.5734 5.00512 20.9823 5.08337 21.1262L6.61682 24L7.31728 20.8195C7.60252 19.5436 7.87891 19.0602 8.20958 18.7295L8.27269 18.6664L8.3522 18.7144C9.11198 19.1738 10.0182 19.4148 10.9698 19.4148C12.073 19.4044 13.1542 19.1054 14.1061 18.5478C14.727 18.1818 15.2546 17.7337 15.6787 17.2162L15.7329 17.1771L15.8314 17.1721C16.0775 17.167 16.4233 17.0383 16.778 16.8263C17.0733 16.6496 17.5327 16.3189 17.9858 15.7623C18.473 15.1488 18.8516 14.4564 19.1053 13.7152C19.4347 12.7888 19.6379 11.7047 19.706 10.4918C19.7855 9.37737 19.6517 8.45983 19.3223 7.76063ZM18.7708 10.4325C18.7102 11.5557 18.5285 12.5579 18.2281 13.4047C18.009 14.0441 17.682 14.6413 17.2613 15.1704C16.6101 15.9693 15.9298 16.2356 15.7872 16.2394C15.6888 16.2394 15.6395 16.2053 15.4363 16.0627C15.4217 16.0549 15.4033 16.041 15.3869 16.0287L15.3732 16.0185C14.9883 16.7038 14.3913 17.2945 13.6379 17.7388C12.8287 18.2156 11.9089 18.4723 10.9698 18.4834C9.92477 18.4834 8.99335 18.1426 8.279 17.5065C7.42077 18.0593 6.86293 18.5515 6.40479 20.6176L6.24703 21.3282L5.90626 20.687C5.741 20.3601 5.61232 20.016 5.52258 19.6609C5.28951 18.7583 5.18331 17.8276 5.20706 16.8957C5.2222 15.7421 5.56676 14.9924 5.86335 14.5734C6.20285 14.0762 6.64585 13.7695 7.02069 13.7695H7.0901C7.67902 13.8379 8.05176 14.0833 8.72449 14.5261L8.75229 14.5444L8.9681 14.687C9.20538 14.8397 9.48556 14.9975 9.57391 15.0316C9.63449 14.9975 9.77711 14.7665 9.82128 14.4207L9.83138 14.3715V14.3563C9.82633 14.3513 9.82633 14.3513 9.82128 14.3513C9.35809 14.1935 8.72326 13.464 8.39637 12.3799C8.0859 11.2945 8.15027 10.3984 8.58443 9.70804C9.28868 8.58477 10.7981 8.32731 11.2904 8.24401C11.4431 8.21372 11.6008 8.18469 11.7535 8.15945C11.7703 8.15666 11.7851 8.15232 11.7987 8.14836C11.8096 8.14516 11.8197 8.14221 11.8293 8.14052C11.8225 8.12414 11.817 8.10726 11.8129 8.09003C11.8088 8.06992 11.8033 8.04771 11.7972 8.02353C11.7899 7.99462 11.7819 7.96283 11.775 7.92849C11.621 7.23307 11.6993 6.65124 11.7939 6.17796L11.7968 6.16384C11.9036 5.64475 11.9679 5.33219 12.2268 5.0345C12.5744 4.55564 13.1722 4.35298 13.538 4.22899L13.5482 4.2255C13.6216 4.20174 13.694 4.17522 13.7653 4.14598C14.8002 3.64872 15.1259 3.14136 15.2205 2.80059C15.2937 2.51914 15.4174 1.77577 15.3631 1.2621C15.3575 1.2198 15.3611 1.17678 15.3737 1.13603C15.3864 1.09527 15.4077 1.05776 15.4363 1.02608C15.4617 0.997732 15.4928 0.975167 15.5277 0.959923C15.5625 0.944679 15.6003 0.937112 15.6383 0.937737C15.8162 0.937737 15.9639 0.937737 16.5066 2.61885C16.7931 3.50105 16.5811 4.33404 15.8756 5.08372L15.8503 5.11275C15.8528 5.11527 15.8541 5.1178 15.8554 5.12032C15.8566 5.12285 15.8579 5.12537 15.8604 5.12789C16.157 5.61506 16.3198 6.22592 16.2706 6.68027C16.2602 6.78013 16.2434 6.8792 16.2201 6.97686V6.98191C16.2794 6.97687 16.3488 6.97182 16.4284 6.97182C16.778 6.97182 17.2803 7.02609 17.6904 7.28734C17.9366 7.4451 18.2521 7.68616 18.4793 8.1645C18.7405 8.71729 18.839 9.48086 18.7695 10.4325H18.7708Z"/>
</g>
<defs>
<clipPath id="clip0_5083_29238">
<path d="M0 0H24V24H0V0Z" fill="white"/>
</clipPath>
</defs>
</svg>
