<svg width="24" height="24" viewBox="0 0 24 24" fill="#151B1E" xmlns="http://www.w3.org/2000/svg">
<path fill-rule="evenodd" clip-rule="evenodd" d="M3.75 6.86047C3.75 5.34169 4.98122 4.11047 6.5 4.11047H17.5C19.0188 4.11047 20.25 5.34169 20.25 6.86047V13.068V16.5239C20.25 18.2306 18.9256 19.6604 17.207 19.7521C13.7816 19.9349 10.1864 19.9354 6.79072 19.7532C5.07269 19.661 3.75 18.2313 3.75 16.5257V13.0686V6.86047ZM18.75 6.86047V13.068C18.75 14.2526 17.8363 15.2264 16.6732 15.2874C13.6864 15.444 10.3129 15.4444 7.32618 15.2877C6.16345 15.2267 5.25 14.2531 5.25 13.0686V6.86047C5.25 6.17012 5.80964 5.61047 6.5 5.61047H17.5C18.1904 5.61047 18.75 6.17012 18.75 6.86047ZM7.24758 16.7856C6.49588 16.7462 5.81074 16.4837 5.25 16.0657V16.5257C5.25 17.4491 5.96397 18.2067 6.87109 18.2554C10.2128 18.4347 13.7545 18.4342 17.1271 18.2542C18.0352 18.2058 18.75 17.4476 18.75 16.5239V16.0652C18.1891 16.4833 17.5037 16.7459 16.7518 16.7853C13.7128 16.9447 10.2868 16.9451 7.24758 16.7856ZM13.055 8.36498C13.3336 8.05849 13.311 7.58415 13.0045 7.30552C12.698 7.02689 12.2237 7.04948 11.9451 7.35597L9.44506 10.106C9.24537 10.3256 9.19403 10.6424 9.31413 10.9139C9.43423 11.1854 9.70315 11.3605 10 11.3605H12.3046L10.9451 12.856C10.6664 13.1625 10.689 13.6368 10.9955 13.9154C11.302 14.1941 11.7763 14.1715 12.055 13.865L14.555 11.115C14.7547 10.8953 14.806 10.5785 14.6859 10.3071C14.5658 10.0356 14.2969 9.86048 14 9.86048H11.6954L13.055 8.36498Z"/>
</svg>
