<svg width="24" height="24" viewBox="0 0 24 24" fill="#151B1E" xmlns="http://www.w3.org/2000/svg">
<path d="M21.7185 2.90696C21.8377 2.52262 21.4772 2.16209 21.0929 2.28129L13.5777 4.61205C12.6914 4.88692 12.6249 6.11577 13.4763 6.48472L16.1127 7.62719C16.2292 7.67768 16.3222 7.77063 16.3727 7.88715L17.5151 10.5235C17.8841 11.3749 19.1129 11.3084 19.3878 10.4221L21.7185 2.90696Z"/>
<path d="M3.16266 13.505C2.7465 13.3243 2.32412 13.7467 2.50486 14.1628L3.95426 17.5L2.50486 20.8372C2.32412 21.2534 2.7465 21.6757 3.16266 21.495L6.49986 20.0456L9.83705 21.495C10.2532 21.6757 10.6756 21.2534 10.4948 20.8372L9.04546 17.5L15.0453 9.30394C15.2141 9.07338 14.9265 8.78576 14.6959 8.95454L6.49986 14.9544L3.16266 13.505Z"/>
<path d="M3.42013 9.73762C3.00397 9.91836 2.58159 9.49598 2.76234 9.07982L3.63928 7.06067L2.76234 5.04152C2.58159 4.62536 3.00397 4.20298 3.42013 4.38373L5.43928 5.26067L7.52734 4.31042C7.94805 4.11896 8.381 4.55191 8.18954 4.97261L7.23928 7.06067L8.11623 9.07982C8.29697 9.49598 7.87459 9.91836 7.45843 9.73762L5.43928 8.86067L3.42013 9.73762Z"/>
<path d="M18.9585 21.2376C19.3747 21.4184 19.797 20.996 19.6163 20.5798L18.7394 18.5607L19.6896 16.4726C19.8811 16.0519 19.4481 15.6189 19.0274 15.8104L16.9394 16.7607L14.9202 15.8837C14.504 15.703 14.0817 16.1254 14.2624 16.5415L15.1394 18.5607L14.2624 20.5798C14.0817 20.996 14.504 21.4184 14.9202 21.2376L16.9394 20.3607L18.9585 21.2376Z"/>
</svg>
