<svg width="24" height="24" viewBox="0 0 24 24" fill="#151B1E" xmlns="http://www.w3.org/2000/svg">
<path fill-rule="evenodd" clip-rule="evenodd" d="M2 4C2 3.44772 2.44772 3 3 3H11C11.5523 3 12 3.44772 12 4C12 4.55228 11.5523 5 11 5H4V19H11C11.5523 19 12 19.4477 12 20C12 20.5523 11.5523 21 11 21H3C2.44772 21 2 20.5523 2 20V4ZM16.2929 7.29289C16.6834 6.90237 17.3166 6.90237 17.7071 7.29289L21.7071 11.2929C22.0976 11.6834 22.0976 12.3166 21.7071 12.7071L17.7071 16.7071C17.3166 17.0976 16.6834 17.0976 16.2929 16.7071C15.9024 16.3166 15.9024 15.6834 16.2929 15.2929L18.5858 13H9C8.44772 13 8 12.5523 8 12C8 11.4477 8.44772 11 9 11H18.5858L16.2929 8.70711C15.9024 8.31658 15.9024 7.68342 16.2929 7.29289Z"/>
</svg>
