<svg width="24" height="24" viewBox="0 0 24 24" fill="#151B1E" xmlns="http://www.w3.org/2000/svg">
<path d="M14.9516 4.09796L9.393 2.12808C8.92607 1.95923 8.41468 1.95923 7.94775 2.11682L3.51195 3.62519C2.61145 3.94037 2 4.79586 2 5.76392V19.1028C2 20.69 3.56754 21.7706 5.0239 21.1965L8.28127 19.9133C8.52585 19.812 8.80378 19.812 9.04836 19.902L14.607 21.8719C15.0739 22.0408 15.5853 22.0408 16.0523 21.8832L20.488 20.3748C21.3885 20.0709 22 19.2041 22 18.2361V4.89717C22 3.31001 20.4325 2.22939 18.9761 2.80347L15.7187 4.0867C15.4742 4.17676 15.2073 4.18801 14.9516 4.09796ZM15.3407 19.7557L8.67037 17.3806V4.24429L15.3407 6.61941V19.7557Z"/>
</svg>
