<svg width="24" height="24" viewBox="0 0 24 24" fill="#151B1E" xmlns="http://www.w3.org/2000/svg">
<path d="M9.05 15H15C15.1833 15 15.35 14.9543 15.5 14.863C15.65 14.771 15.7667 14.65 15.85 14.5L16.95 12.6C17.0333 12.45 17.0667 12.2833 17.05 12.1C17.0333 11.9167 16.9833 11.75 16.9 11.6L13.95 6.5C13.8667 6.35 13.75 6.229 13.6 6.137C13.45 6.04567 13.2833 6 13.1 6H10.9C10.7167 6 10.55 6.04567 10.4 6.137C10.25 6.229 10.1333 6.35 10.05 6.5L7.1 11.6C7.01667 11.75 6.975 11.9167 6.975 12.1C6.975 12.2833 7.01667 12.45 7.1 12.6L8.15 14.5C8.23333 14.6667 8.35833 14.7917 8.525 14.875C8.69167 14.9583 8.86667 15 9.05 15ZM10.25 12L12 9L13.75 12H10.25ZM3 17V4C3 3.45 3.19567 2.979 3.587 2.587C3.979 2.19567 4.45 2 5 2H19C19.55 2 20.021 2.19567 20.413 2.587C20.8043 2.979 21 3.45 21 4V17H3ZM5 22C4.45 22 3.979 21.8043 3.587 21.413C3.19567 21.021 3 20.55 3 20V19H21V20C21 20.55 20.8043 21.021 20.413 21.413C20.021 21.8043 19.55 22 19 22H5Z"/>
</svg>
