<svg width="24" height="24" viewBox="0 0 24 24" fill="#151B1E" xmlns="http://www.w3.org/2000/svg">
<path d="M20.1818 3.81818H3.81818C2.81818 3.81818 2 4.63636 2 5.63636V18.3636C2 19.3636 2.81818 20.1818 3.81818 20.1818H20.1818C21.1818 20.1818 22 19.3636 22 18.3636V5.63636C22 4.63636 21.1818 3.81818 20.1818 3.81818ZM19.2727 18.3636H4.72727C4.22727 18.3636 3.81818 17.9545 3.81818 17.4545V6.54545C3.81818 6.04545 4.22727 5.63636 4.72727 5.63636H12.9091V8.36363C12.9091 8.86363 13.3182 9.27272 13.8182 9.27272H20.1818V17.4545C20.1818 17.9545 19.7727 18.3636 19.2727 18.3636Z"/>
</svg>
