<svg width="24" height="24" viewBox="0 0 24 24" fill="#151B1E" xmlns="http://www.w3.org/2000/svg">
<path fill-rule="evenodd" clip-rule="evenodd" d="M2 6C2 4.34315 3.34315 3 5 3H19C20.6569 3 22 4.34315 22 6V18C22 19.6569 20.6569 21 19 21H5C3.34315 21 2 19.6569 2 18V6ZM5 5C4.44772 5 4 5.44772 4 6V18C4 18.5523 4.44772 19 5 19H19C19.5523 19 20 18.5523 20 18V6C20 5.44772 19.5523 5 19 5H5ZM6 8C6 7.44772 6.44772 7 7 7H11C11.5523 7 12 7.44772 12 8V12C12 12.5523 11.5523 13 11 13H7C6.44772 13 6 12.5523 6 12V8ZM15 7C14.4477 7 14 7.44772 14 8C14 8.55228 14.4477 9 15 9H17C17.5523 9 18 8.55228 18 8C18 7.44772 17.5523 7 17 7H15ZM14 12C14 11.4477 14.4477 11 15 11H17C17.5523 11 18 11.4477 18 12C18 12.5523 17.5523 13 17 13H15C14.4477 13 14 12.5523 14 12ZM7 15C6.44772 15 6 15.4477 6 16C6 16.5523 6.44771 17 7 17H17C17.5523 17 18 16.5523 18 16C18 15.4477 17.5523 15 17 15H7Z"/>
</svg>
