<svg width="24" height="24" viewBox="0 0 24 24" fill="#151B1E" xmlns="http://www.w3.org/2000/svg">
<path d="M20.06 10.14C20.62 10.6 21.44 10.56 21.95 10.05C22.54 9.45999 22.5 8.47998 21.85 7.94999C18.26 5.00998 13.65 3.91999 9.30001 4.68999L11.89 7.27999C14.78 7.24999 17.69 8.19999 20.06 10.14V10.14ZM17.79 11.97C17.01 11.4 16.16 10.97 15.27 10.67L18.22 13.62C18.46 13.04 18.32 12.35 17.79 11.97ZM13.95 16.23C12.73 15.6 11.27 15.6 10.04 16.23C9.45001 16.54 9.34001 17.35 9.81001 17.82L11.28 19.29C11.67 19.68 12.3 19.68 12.69 19.29L14.16 17.82C14.65 17.35 14.55 16.54 13.95 16.23ZM19.68 17.9L4.12001 2.33999C3.73001 1.94999 3.10001 1.94999 2.71001 2.33999C2.32001 2.72999 2.32001 3.35999 2.71001 3.74999L5.05001 6.09999C4.04001 6.59999 3.06001 7.20999 2.16001 7.94999C1.51001 8.47998 1.47001 9.45999 2.06001 10.05C2.57001 10.56 3.38001 10.61 3.93001 10.15C4.93001 9.32999 6.03001 8.68999 7.18001 8.21999L9.41001 10.45C8.28001 10.75 7.20001 11.25 6.22001 11.96C5.53001 12.46 5.49001 13.47 6.09001 14.07L6.10001 14.08C6.59001 14.57 7.36001 14.62 7.93001 14.21C9.12001 13.37 10.51 12.95 11.9 12.92L18.27 19.29C18.66 19.68 19.29 19.68 19.68 19.29C20.07 18.92 20.07 18.29 19.68 17.9Z"/>
</svg>
