<svg width="24" height="24" viewBox="0 0 24 24" fill="#151B1E" xmlns="http://www.w3.org/2000/svg">
<path fill-rule="evenodd" clip-rule="evenodd" d="M16.3502 17.7644L18.7929 20.2071C19.1834 20.5976 19.8166 20.5976 20.2071 20.2071C20.5976 19.8166 20.5976 19.1834 20.2071 18.7929L4.70711 3.29289C4.31658 2.90237 3.68342 2.90237 3.29289 3.29289C2.90237 3.68342 2.90237 4.31658 3.29289 4.70711L4.89491 6.30912C4.3269 7.43012 4 8.73936 4 10.2C4 13.38 6.45 17.12 11.33 21.43C11.71 21.76 12.28 21.76 12.66 21.43C14.1025 20.1586 15.3326 18.9368 16.3502 17.7644ZM12.7899 8.16352C13.2574 8.36617 13.6338 8.74261 13.8365 9.21013L18.8551 14.2287C19.6182 12.7981 20 11.4554 20 10.2C20 5.22 16.2 2 12 2C10.496 2 9.0433 2.4129 7.79802 3.17167L12.7899 8.16352Z"/>
</svg>
