<svg width="24" height="24" viewBox="0 0 24 24" fill="#151B1E" xmlns="http://www.w3.org/2000/svg">
<path fill-rule="evenodd" clip-rule="evenodd" d="M4.70711 4.29289C4.31658 3.90237 3.68342 3.90237 3.29289 4.29289C2.90237 4.68342 2.90237 5.31658 3.29289 5.70711L6.5866 9.00082C6.5578 9.00027 6.52893 9 6.5 9C4.01472 9 2 11.0147 2 13.5C2 13.7223 2.01612 13.9408 2.04725 14.1545C0.857438 14.5527 0 15.6762 0 17C0 18.6569 1.34315 20 3 20H17.5858L18.7929 21.2071C19.1834 21.5976 19.8166 21.5976 20.2071 21.2071C20.5976 20.8166 20.5976 20.1834 20.2071 19.7929L4.70711 4.29289ZM24 15C24 16.57 23.2764 17.971 22.1445 18.8876C22.1195 18.6318 22.0091 18.3828 21.8131 18.1868L9.22758 5.60126C10.37 4.60407 11.8645 4 13.5 4C16.9547 4 19.7799 6.69515 19.9877 10.0975C22.2761 10.5561 24 12.5767 24 15Z"/>
</svg>
