<svg width="24" height="24" viewBox="0 0 24 24" fill="#151B1E" xmlns="http://www.w3.org/2000/svg">
<path fill-rule="evenodd" clip-rule="evenodd" d="M15.9999 3C15.9999 2.44772 15.5522 2 14.9999 2H9.91416C9.38372 2 8.87501 2.21071 8.49994 2.58579L3.58573 7.5C3.21066 7.87507 2.99994 8.38378 2.99994 8.91421V9V20C2.99994 21.1046 3.89537 22 4.99994 22H16.9999C18.1045 22 18.9999 21.1046 18.9999 20V16C18.9999 15.4477 18.5522 15 17.9999 15C17.4477 15 16.9999 15.4477 16.9999 16V20H4.99994V9H6.99994C8.10451 9 8.99994 8.10457 8.99994 7V4.91421L9.91416 4H14.9999C15.5522 4 15.9999 3.55228 15.9999 3ZM9.99994 15.6668V13.6404C9.99994 13.5471 10.0333 13.4671 10.0999 13.4004L17.3723 6.12805L19.872 8.62771L12.5929 15.9001C12.5329 15.9667 12.4463 16.0001 12.3596 16.0001H10.3332C10.1466 16.0001 9.99994 15.8534 9.99994 15.6668ZM21.805 5.75476C22.065 6.01473 22.065 6.43467 21.805 6.69464L20.5852 7.91447L18.0855 5.41481L19.3054 4.19497C19.5653 3.93501 19.9853 3.93501 20.2452 4.19497L21.805 5.75476Z"/>
</svg>
