<svg width="24" height="24" viewBox="0 0 24 24" fill="#151B1E" xmlns="http://www.w3.org/2000/svg">
<path fill-rule="evenodd" clip-rule="evenodd" d="M12.9697 4.46967C13.2626 4.17678 13.7374 4.17678 14.0303 4.46967L19.5303 9.96967C19.8232 10.2626 19.8232 10.7374 19.5303 11.0303C19.2374 11.3232 18.7626 11.3232 18.4697 11.0303L18.1277 10.6883L14.4578 16.3971L15.0303 16.9697C15.3232 17.2626 15.3232 17.7374 15.0303 18.0303C14.7374 18.3232 14.2626 18.3232 13.9697 18.0303L12.9697 17.0303C12.9695 17.0302 12.9698 17.0305 12.9697 17.0303L10.5 14.5607L6.03033 19.0303C5.73744 19.3232 5.26256 19.3232 4.96967 19.0303C4.67678 18.7374 4.67678 18.2626 4.96967 17.9697L9.43934 13.5L6.96986 11.0305C6.9698 11.0305 6.96992 11.0306 6.96986 11.0305L5.96967 10.0303C5.67678 9.73744 5.67678 9.26256 5.96967 8.96967C6.26256 8.67678 6.73744 8.67678 7.03033 8.96967L7.6029 9.54224L13.3117 5.87232L12.9697 5.53033C12.6768 5.23744 12.6768 4.76256 12.9697 4.46967ZM14.3971 6.95776L8.68834 10.6277L13.3723 15.3117L17.0422 9.6029L14.3971 6.95776Z"/>
</svg>
