<svg width="24" height="24" viewBox="0 0 24 24" fill="#151B1E" xmlns="http://www.w3.org/2000/svg">
<g clip-path="url(#clip0)">
<path fill-rule="evenodd" clip-rule="evenodd" d="M15.3346 18.5649C15.6669 18.2326 15.6952 17.7235 15.4619 17.3063C14.8113 16.1608 14.974 14.6829 15.9498 13.7071L19.4853 10.1716L20.1924 10.8787C20.5813 11.2676 21.2177 11.2676 21.6066 10.8787C21.9955 10.4898 21.9955 9.85338 21.6066 9.46447L14.5356 2.3934C14.1466 2.00449 13.5102 2.00449 13.1213 2.3934C12.7324 2.78231 12.7324 3.41871 13.1213 3.80761L13.8284 4.51472L10.2929 8.05025C9.3171 9.02606 7.83925 9.1887 6.69374 8.53816C6.27654 8.30481 5.76743 8.3331 5.43509 8.66544L5.34316 8.75736C4.95425 9.14627 4.95425 9.78267 5.34316 10.1716L8.86455 13.693L3.92895 18.6569C3.54004 19.0458 3.54004 19.6822 3.92895 20.0711C4.31786 20.46 4.95426 20.46 5.34316 20.0711L10.2788 15.1072L13.8284 18.6569C14.2174 19.0458 14.8537 19.0458 15.2427 18.6569L15.3346 18.5649Z"/>
</g>
<defs>
<clipPath id="clip0">
<rect width="24" height="24" fill="white"/>
</clipPath>
</defs>
</svg>
