<svg width="24" height="24" viewBox="0 0 24 24" fill="#151B1E" xmlns="http://www.w3.org/2000/svg">
<path d="M22.8032 12.0086C22.8032 11.3393 22.2626 10.7987 21.5933 10.7987L13.2099 10.7901L13.2099 2.39814C13.2099 1.72884 12.6693 1.18825 12 1.18825C11.3307 1.18825 10.7901 1.72884 10.7901 2.39814L10.7901 10.7901L2.39815 10.7901C1.72885 10.7901 1.18827 11.3307 1.18827 12C1.18826 12.6693 1.72885 13.2099 2.39815 13.2099L10.7901 13.2099L10.7901 21.6018C10.7901 22.2711 11.3307 22.8117 12 22.8117C12.6693 22.8117 13.2099 22.2711 13.2099 21.6018L13.2099 13.2099L21.6018 13.2099C22.254 13.2099 22.8032 12.6607 22.8032 12.0086Z"/>
</svg>
