<svg width="24" height="24" viewBox="0 0 24 24" fill="#151B1E" xmlns="http://www.w3.org/2000/svg">
<path d="M13 4.99999H23C23.55 4.99999 24 5.44999 24 5.99999C24 6.54999 23.55 6.99999 23 6.99999H13C12.45 6.99999 12 6.54999 12 5.99999C12 5.44999 12.45 4.99999 13 4.99999ZM13 10.5H23C23.55 10.5 24 10.95 24 11.5C24 12.05 23.55 12.5 23 12.5H13C12.45 12.5 12 12.05 12 11.5C12 10.95 12.45 10.5 13 10.5ZM13 16H23C23.55 16 24 16.45 24 17C24 17.55 23.55 18 23 18H13C12.45 18 12 17.55 12 17C12 16.45 12.45 16 13 16ZM7.85006 3.85L9.64006 5.64C9.84006 5.84 9.84006 6.15 9.64006 6.35L7.85006 8.14C7.54006 8.46 7.00006 8.24 7.00006 7.79V4.2C7.00006 3.76 7.54006 3.54 7.85006 3.85ZM7.00006 7H6.70006C4.35006 7 2.25006 8.71 2.02006 11.05C1.76006 13.73 3.87006 16 6.50006 16H8.5C9.05 16 9.5 16.45 9.5 17C9.5 17.55 9.05 18 8.5 18H6.50006C2.64006 18 -0.459941 14.6 0.0600593 10.64C0.480059 7.36 3.43006 5 6.73006 5H7.00006"/>
</svg>
