<svg width="24" height="24" viewBox="0 0 24 24" fill="#151B1E" xmlns="http://www.w3.org/2000/svg">
<path fill-rule="evenodd" clip-rule="evenodd" d="M12 22C17.5228 22 22 17.5228 22 12C22 6.47715 17.5228 2 12 2C6.47715 2 2 6.47715 2 12C2 17.5228 6.47715 22 12 22ZM9.74571 16.1371C9.55714 16.5229 9.15429 16.7714 8.71714 16.7714C7.86 16.7714 7.30286 15.8714 7.68857 15.1086L8.57143 13.3429H6.85714C6.38571 13.3429 6 12.9571 6 12.4857V9.05714C6 8.58571 6.38571 8.2 6.85714 8.2H10.2857C10.7571 8.2 11.1429 8.58571 11.1429 9.05714V12.94C11.1429 13.2057 11.0829 13.4629 10.9629 13.7029L9.74571 16.1371ZM16.6029 16.1371C16.4143 16.5229 16.0114 16.7714 15.5743 16.7714C14.7171 16.7714 14.16 15.8714 14.5457 15.1086L15.4286 13.3429H13.7143C13.2429 13.3429 12.8571 12.9571 12.8571 12.4857V9.05714C12.8571 8.58571 13.2429 8.2 13.7143 8.2H17.1429C17.6143 8.2 18 8.58571 18 9.05714V12.94C18 13.2057 17.94 13.4629 17.82 13.7029L16.6029 16.1371Z"/>
</svg>
