<svg width="24" height="24" viewBox="0 0 24 24" fill="#151B1E" xmlns="http://www.w3.org/2000/svg">
<path d="M9.32122 5.53285C10.6003 5.00303 12.0078 4.86441 13.3656 5.13451C14.7235 5.4046 15.9708 6.07129 16.9497 7.05026L17.1997 7.30025L15.3536 9.14645C15.0386 9.46143 15.2617 10 15.7071 10H20C20.5523 10 21 9.55229 21 9V4.70711C21 4.26165 20.4614 4.03857 20.1464 4.35355L18.614 5.88604L18.364 5.63604C17.1053 4.37737 15.5016 3.5202 13.7558 3.17294C12.01 2.82567 10.2004 3.0039 8.55585 3.68509C6.91131 4.36628 5.50571 5.51983 4.51677 6.99987C3.52784 8.47992 3 10.22 3 12C3 13.78 3.52784 15.5201 4.51677 17.0001C5.50571 18.4802 6.91131 19.6337 8.55585 20.3149C10.2004 20.9961 12.01 21.1743 13.7558 20.8271C15.5016 20.4798 17.1053 19.6226 18.364 18.364C18.7545 17.9734 18.7545 17.3403 18.364 16.9498C17.9734 16.5592 17.3403 16.5592 16.9497 16.9498C15.9708 17.9287 14.7235 18.5954 13.3656 18.8655C12.0078 19.1356 10.6003 18.997 9.32122 18.4672C8.04213 17.9373 6.94888 17.0401 6.17971 15.889C5.41054 14.7379 5 13.3845 5 12C5 10.6155 5.41054 9.26216 6.17971 8.11101C6.94888 6.95987 8.04213 6.06266 9.32122 5.53285Z"/>
</svg>
