<svg width="24" height="24" viewBox="0 0 24 24" fill="#151B1E" xmlns="http://www.w3.org/2000/svg">
  <path fill-rule="evenodd" clip-rule="evenodd" d="M13.13 22.19L11.5 18.36L11.0796 17.4328C10.4116 17.5798 9.72209 17.3809 9.24 16.89L7.11 14.77C6.64703 14.2986 6.43915 13.643 6.55194 13L5.64 12.5L1.81 10.87L7.91 8.1L9.88 7.15545C10.2254 6.7417 10.5979 6.33214 11 5.93C16.66 0.269002 21.61 2.39 21.61 2.39C21.61 2.39 23.73 7.34 18.07 13C17.6688 13.4012 17.2613 13.7738 16.85 14.12L15.9 16.09L13.13 22.19ZM14.54 9.46C13.76 8.68 13.76 7.41 14.54 6.63C15.32 5.85 16.59 5.85 17.37 6.63C18.14 7.41 18.15 8.68 17.37 9.46C16.59 10.24 15.32 10.24 14.54 9.46ZM2 22C2 22 5.53553 22 7.26777 20.2678C8.24408 19.2915 8.24408 17.7086 7.26777 16.7322C6.29146 15.7559 4.70854 15.7559 3.73223 16.7322C2 18.4645 2 22 2 22Z"/>
</svg>
