<svg width="16" height="16" viewBox="0 0 16 16" fill="#151B1E" xmlns="http://www.w3.org/2000/svg">
<path fill-rule="evenodd" clip-rule="evenodd" d="M14.4714 2.4714C14.7318 2.21105 14.7318 1.78894 14.4714 1.52859C14.2111 1.26824 13.789 1.26824 13.5286 1.52859L12.5286 2.52859C12.2683 2.78894 12.2683 3.21105 12.5286 3.4714C12.789 3.73175 13.2111 3.73175 13.4714 3.4714L14.4714 2.4714ZM3.47145 13.4714C3.73179 13.2111 3.73179 12.7889 3.47145 12.5286C3.2111 12.2682 2.78899 12.2682 2.52864 12.5286L1.52864 13.5286C1.26829 13.7889 1.26829 14.2111 1.52864 14.4714C1.78899 14.7317 2.2111 14.7317 2.47144 14.4714L3.47145 13.4714ZM2.47145 1.52859C2.2111 1.26824 1.78899 1.26824 1.52864 1.52859C1.26829 1.78894 1.26829 2.21105 1.52864 2.4714L2.52864 3.4714C2.78899 3.73175 3.2111 3.73175 3.47145 3.4714C3.7318 3.21105 3.7318 2.78894 3.47145 2.52859L2.47145 1.52859ZM11.8048 10.8619C11.7822 10.8394 11.7584 10.8187 11.7336 10.8001C12.3195 10.0201 12.6667 9.05061 12.6667 8C12.6667 5.42267 10.5774 3.33333 8.00004 3.33333C5.42271 3.33333 3.33337 5.42267 3.33337 8C3.33337 10.5773 5.42271 12.6667 8.00004 12.6667C9.05065 12.6667 10.0202 12.3195 10.8001 11.7336C10.8188 11.7584 10.8394 11.7822 10.862 11.8047L13.5286 14.4714C13.789 14.7317 14.2111 14.7317 14.4714 14.4714C14.7318 14.2111 14.7318 13.7889 14.4714 13.5286L11.8048 10.8619ZM8.00004 11.3333C9.84099 11.3333 11.3334 9.84095 11.3334 8C11.3334 6.15905 9.84099 4.66666 8.00004 4.66666C6.15909 4.66666 4.66671 6.15905 4.66671 8C4.66671 9.84095 6.15909 11.3333 8.00004 11.3333ZM8.00004 8.99999C8.55233 8.99999 9.00004 8.55228 9.00004 7.99999C9.00004 7.44771 8.55233 6.99999 8.00004 6.99999C7.44776 6.99999 7.00004 7.44771 7.00004 7.99999C7.00004 8.55228 7.44776 8.99999 8.00004 8.99999Z"/>
</svg>
