<svg width="24" height="24" viewBox="0 0 24 24" fill="#151B1E" xmlns="http://www.w3.org/2000/svg">
<path d="M13 4C12.45 4 12 3.55 12 3C12 2.45 12.45 2 13 2H18C18.55 2 19 2.45 19 3V8C19 8.55 18.55 9 18 9C17.45 9 17 8.55 17 8V5.41L10.87 11.54C10.48 11.93 9.84998 11.93 9.45998 11.54C9.06998 11.15 9.06998 10.52 9.45998 10.13L15.59 4H13ZM17.1758 15.7616C17.8876 14.8584 18.411 13.8174 18.7104 12.7C18.8533 12.1665 18.5367 11.6182 18.0033 11.4752C17.4698 11.3323 16.9215 11.6489 16.7785 12.1823C16.4832 13.2844 15.903 14.2894 15.0962 15.0962C14.2894 15.903 13.2844 16.4832 12.1823 16.7785C11.0802 17.0738 9.91979 17.0738 8.81768 16.7785C7.71557 16.4832 6.71061 15.903 5.90381 15.0962C5.09701 14.2894 4.51679 13.2844 4.22148 12.1823C3.92617 11.0802 3.92617 9.91979 4.22148 8.81768C4.51679 7.71557 5.09701 6.71061 5.90381 5.90381C6.71061 5.09701 7.71557 4.51679 8.81768 4.22148C9.35114 4.07854 9.66773 3.53021 9.52478 2.99674C9.38184 2.46327 8.8335 2.14669 8.30004 2.28963C6.85882 2.67581 5.54464 3.43455 4.48959 4.48959C3.43455 5.54464 2.6758 6.85882 2.28963 8.30004C1.90346 9.74126 1.90346 11.2587 2.28963 12.7C2.6758 14.1412 3.43455 15.4554 4.48959 16.5104C5.54464 17.5655 6.85882 18.3242 8.30004 18.7104C9.74126 19.0965 11.2587 19.0965 12.7 18.7104C13.8174 18.411 14.8584 17.8876 15.7616 17.1758L19.2929 20.7071C19.6834 21.0976 20.3166 21.0976 20.7071 20.7071C21.0976 20.3166 21.0976 19.6834 20.7071 19.2929L17.1758 15.7616Z"/>
</svg>
