<svg width="24" height="24" viewBox="0 0 24 24" fill="#151B1E" xmlns="http://www.w3.org/2000/svg">
<path fill-rule="evenodd" clip-rule="evenodd" d="M10.4932 20.8036C10.9325 21.0883 11.4461 21.2369 11.9696 21.2309C12.4945 21.2184 13.0047 21.0552 13.4396 20.7609C13.8768 20.4732 14.2235 20.0676 14.4396 19.5909L14.9196 18.4909C15.0271 18.2672 15.1974 18.0796 15.4096 17.9509C15.6264 17.8228 15.8796 17.77 16.1296 17.8009L17.3996 17.9709C17.9191 18.0186 18.4417 17.9217 18.9096 17.6909C19.3724 17.4497 19.7573 17.0821 20.0196 16.6309C20.2828 16.1788 20.4079 15.6594 20.3795 15.137C20.3511 14.6146 20.1703 14.1119 19.8596 13.6909L19.1596 12.6909C19.0081 12.4854 18.9274 12.2363 18.9296 11.9809C18.9289 11.732 19.0096 11.4897 19.1596 11.2909L19.8696 10.2909C20.1764 9.86797 20.3539 9.36505 20.3805 8.84319C20.4071 8.32133 20.2818 7.80295 20.0196 7.35094C19.7545 6.91695 19.3688 6.56948 18.9096 6.35094C18.4451 6.11004 17.9195 6.01258 17.3996 6.07094L16.1996 6.19094C15.9528 6.2227 15.7025 6.16982 15.4896 6.04094C15.2706 5.92064 15.0981 5.73056 14.9996 5.50094L14.5096 4.40094C14.3514 4.03598 14.1147 3.71033 13.8165 3.4471C13.5183 3.18387 13.1658 2.98952 12.784 2.87784C12.4022 2.76617 12.0005 2.73992 11.6074 2.80094C11.2144 2.86197 10.8395 3.00877 10.5096 3.23094C10.0694 3.51522 9.72186 3.92187 9.50959 4.40094L9.01959 5.50094C8.92107 5.73056 8.74859 5.92064 8.52959 6.04094C8.3167 6.16982 8.06641 6.2227 7.81959 6.19094L6.61959 6.07094C6.09124 6.02518 5.5614 6.14021 5.09959 6.40094C4.63734 6.61885 4.24827 6.96624 3.97959 7.40094C3.72151 7.85737 3.59677 8.3771 3.61959 8.90094C3.65862 9.40399 3.83887 9.8858 4.13959 10.2909L4.84959 11.2909C4.99224 11.4928 5.06907 11.7338 5.06959 11.9809C5.07048 12.2314 4.99361 12.476 4.84959 12.6809L4.13959 13.6809C3.82885 14.1019 3.64812 14.6046 3.61968 15.127C3.59125 15.6494 3.71636 16.1688 3.97959 16.6209C4.24273 17.0786 4.63609 17.4476 5.10959 17.6809C5.57502 17.919 6.09974 18.0163 6.61959 17.9609L7.79959 17.8009C8.05329 17.7741 8.30881 17.8308 8.52725 17.9626C8.74569 18.0944 8.91507 18.294 9.00959 18.5309L9.49959 19.6309C9.70817 20.1111 10.0538 20.519 10.4932 20.8036ZM11.0496 18.9009L10.5596 17.8009C10.3057 17.2584 9.88998 16.8077 9.36959 16.5109C8.83745 16.2125 8.22698 16.0835 7.61959 16.1409L6.42959 16.3109C6.23734 16.3283 6.04397 16.2937 5.86959 16.2109C5.69315 16.122 5.547 15.9828 5.44959 15.8109C5.35428 15.6439 5.30914 15.453 5.31959 15.2609C5.3327 15.067 5.39839 14.8803 5.50959 14.7209L6.21959 13.7209C6.57851 13.2269 6.77112 12.6316 6.76959 12.0209C6.77108 11.4134 6.57837 10.8213 6.21959 10.3309L5.50959 9.33095C5.3968 9.17612 5.33086 8.99216 5.31959 8.80094C5.3202 8.62283 5.36486 8.44762 5.44959 8.29094C5.54854 8.12275 5.69454 7.98718 5.86959 7.90094C6.04264 7.8141 6.23718 7.77936 6.42959 7.80094L7.61959 7.88094C8.23088 7.95227 8.84876 7.82237 9.37959 7.51094C9.90309 7.20738 10.3164 6.74506 10.5596 6.19094L11.0496 5.09094C11.13 4.91299 11.2581 4.76073 11.4196 4.65094C11.5818 4.5455 11.7711 4.48938 11.9646 4.48938C12.1581 4.48938 12.3474 4.5455 12.5096 4.65094C12.6733 4.75823 12.802 4.91122 12.8796 5.09094L13.3796 6.19094C13.6294 6.74558 14.0485 7.20686 14.5766 7.50867C15.1048 7.81047 15.7149 7.93729 16.3196 7.87094L17.5196 7.75094C17.712 7.72936 17.9065 7.7641 18.0796 7.85094C18.251 7.93876 18.3933 8.07418 18.4896 8.24094C18.5868 8.41086 18.632 8.60558 18.6196 8.80094C18.6026 8.96782 18.5404 9.12689 18.4396 9.26094L17.7296 10.2609C17.3708 10.7513 17.1781 11.3434 17.1796 11.9509C17.1794 12.5614 17.3719 13.1563 17.7296 13.6509L18.4396 14.6509C18.5542 14.8086 18.6202 14.9963 18.6296 15.1909C18.64 15.383 18.5949 15.5739 18.4996 15.7409C18.4003 15.9126 18.2522 16.0508 18.0741 16.138C17.8961 16.2253 17.6961 16.2576 17.4996 16.2309L16.3096 16.1109C15.7038 16.0454 15.0928 16.1737 14.5645 16.4774C14.0362 16.781 13.6178 17.2444 13.3696 17.8009L12.8796 18.9009C12.8052 19.08 12.6756 19.2307 12.5096 19.3309C12.3474 19.4364 12.1581 19.4925 11.9646 19.4925C11.7711 19.4925 11.5818 19.4364 11.4196 19.3309C11.2573 19.2263 11.1288 19.077 11.0496 18.9009ZM10.4258 12C10.4258 11.0825 11.1696 10.3387 12.0871 10.3387C13.0047 10.3387 13.7485 11.0825 13.7485 12C13.7485 12.9175 13.0047 13.6613 12.0871 13.6613C11.1696 13.6613 10.4258 12.9175 10.4258 12ZM12.0871 8.63867C10.2307 8.63867 8.72583 10.1436 8.72583 12C8.72583 13.8564 10.2307 15.3613 12.0871 15.3613C13.9435 15.3613 15.4485 13.8564 15.4485 12C15.4485 10.1436 13.9435 8.63867 12.0871 8.63867Z"/>
</svg>
