<svg width="24" height="24" viewBox="0 0 24 24" fill="#151B1E" xmlns="http://www.w3.org/2000/svg">
<path fill-rule="evenodd" clip-rule="evenodd" d="M3 6.94999C3 4.71324 4.81325 2.89999 7.05 2.89999H16.95C19.1868 2.89999 21 4.71324 21 6.94999C21 9.18675 19.1868 11 16.95 11H7.05C4.81325 11 3 9.18675 3 6.94999ZM19 7.00003C19 8.1046 18.1046 9.00003 17 9.00003C15.8954 9.00003 15 8.1046 15 7.00003C15 5.89546 15.8954 5.00003 17 5.00003C18.1046 5.00003 19 5.89546 19 7.00003ZM3 17.05C3 14.8132 4.81325 13 7.05 13H16.95C19.1868 13 21 14.8132 21 17.05C21 19.2867 19.1868 21.1 16.95 21.1H7.05C4.81325 21.1 3 19.2867 3 17.05ZM9 17C9 18.1046 8.10457 19 7 19C5.89543 19 5 18.1046 5 17C5 15.8955 5.89543 15 7 15C8.10457 15 9 15.8955 9 17Z"/>
</svg>
