<svg width="24" height="24" viewBox="0 0 24 24" fill="#151B1E" xmlns="http://www.w3.org/2000/svg">
<path d="M7.5 10.5C9.165 10.5 10.5 9.15 10.5 7.5C10.5 5.85 9.165 4.5 7.5 4.5C5.85 4.5 4.5 5.85 4.5 7.5C4.5 9.15 5.85 10.5 7.5 10.5ZM16.5 10.5C18.165 10.5 19.5 9.15 19.5 7.5C19.5 5.85 18.165 4.5 16.5 4.5C14.835 4.5 13.5 5.85 13.5 7.5C13.5 9.15 14.85 10.5 16.5 10.5ZM7.5 12.3C4.995 12.3 0 13.545 0 16.05V18H15V16.05C15 13.545 10.005 12.3 7.5 12.3ZM16.5 12.3C16.125 12.3 15.69 12.33 15.24 12.39C16.425 13.29 17.25 14.49 17.25 16.05V18H24V16.05C24 13.545 19.005 12.3 16.5 12.3Z"/>
</svg>
