<svg width="24" height="24" viewBox="0 0 24 24" fill="#151B1E" xmlns="http://www.w3.org/2000/svg">
<path d="M19 2H5C3.9 2 3 2.9 3 3.99V17H21V3.99C21 2.89 20.11 2 19 2ZM14.62 6C15.59 6 16.37 6.79 16.37 7.75C16.37 8.71 15.6 9.5 14.62 9.5C13.66 9.5 12.87 8.71 12.87 7.75C12.87 6.79 13.65 6 14.62 6ZM9.38 6C10.35 6 11.13 6.79 11.13 7.75C11.13 8.71 10.35 9.5 9.38 9.5C8.42 9.5 7.63 8.71 7.63 7.75C7.63 6.79 8.41 6 9.38 6ZM13.75 13H5V12.74C5 11.28 7.91 10.55 9.38 10.55C10.85 10.55 13.76 11.28 13.76 12.74V13H13.75ZM19 13H15.06V12.74C15.06 11.83 14.58 11.13 13.89 10.6C14.15 10.57 14.41 10.55 14.62 10.55C16.08 10.55 19 11.28 19 12.74V13ZM3 20.01C3 21.11 3.89 22 5 22H19C20.1 22 21 21.1 21 20.01V18H3V20.01ZM18 19C18.55 19 19 19.45 19 20C19 20.55 18.55 21 18 21C17.45 21 17 20.55 17 20C17 19.45 17.45 19 18 19Z"/>
</svg>
