<svg width="24" height="24" viewBox="0 0 24 24" fill="#151B1E" xmlns="http://www.w3.org/2000/svg">
<path fill-rule="evenodd" clip-rule="evenodd" d="M2.25 7C2.25 5.48122 3.48122 4.25 5 4.25H19C20.5188 4.25 21.75 5.48122 21.75 7V17C21.75 18.5188 20.5188 19.75 19 19.75H5C3.48122 19.75 2.25 18.5188 2.25 17V7ZM5 5.75C4.30964 5.75 3.75 6.30964 3.75 7V17C3.75 17.6904 4.30964 18.25 5 18.25H19C19.6904 18.25 20.25 17.6904 20.25 17V7C20.25 6.30964 19.6904 5.75 19 5.75H5ZM6.05 7.25C5.60817 7.25 5.25 7.60818 5.25 8.05V15.95C5.25 16.3918 5.60817 16.75 6.05 16.75H9.95C10.3918 16.75 10.75 16.3918 10.75 15.95V8.05C10.75 7.60817 10.3918 7.25 9.95 7.25H6.05Z"/>
</svg>
