<svg width="24" height="24" viewBox="0 0 24 24" fill="#151B1E" xmlns="http://www.w3.org/2000/svg">
<path fill-rule="evenodd" clip-rule="evenodd" d="M7.52327 1C8.73204 1 9.90569 1.33959 10.9158 1.96577C11.2754 1.92733 11.6375 1.90796 12.0006 1.90796C13.3366 1.90796 14.6595 2.17023 15.8938 2.67981C17.1281 3.18938 18.2497 3.93627 19.1944 4.87784C20.1391 5.8194 20.8884 6.93721 21.3997 8.16743C21.911 9.39764 22.1741 10.7162 22.1741 12.0478C22.1741 12.5212 22.1409 12.9929 22.075 13.4597C22.1997 13.6809 22.3113 13.9097 22.4091 14.1451C22.732 14.9221 22.8982 15.7548 22.8982 16.5958C22.8982 17.4369 22.732 18.2696 22.4091 19.0466C22.0862 19.8236 21.6129 20.5296 21.0162 21.1243C20.4196 21.719 19.7112 22.1907 18.9317 22.5126C18.1521 22.8344 17.3165 23 16.4727 23C15.3169 23 14.1932 22.6897 13.2138 22.1152C12.812 22.1633 12.4069 22.1876 12.0006 22.1876C10.6646 22.1876 9.34165 21.9253 8.10734 21.4157C6.87303 20.9061 5.75151 20.1592 4.80681 19.2177C3.86211 18.2761 3.11273 17.1583 2.60146 15.9281C2.0902 14.6979 1.82705 13.3793 1.82705 12.0478C1.82705 11.5493 1.86392 11.0527 1.93688 10.5618C1.39311 9.60674 1.1 8.51943 1.1 7.402C1.1 5.70408 1.77673 4.07571 2.98133 2.8751C4.18593 1.67449 5.81971 1 7.52327 1ZM8.13706 10.6382C8.38533 11.0632 8.7284 11.4251 9.13953 11.6957C9.68424 12.0521 10.2633 12.3531 10.868 12.594C11.5441 12.8766 12.0687 13.1162 12.4417 13.3127C12.7571 13.4678 13.0434 13.6762 13.288 13.9287C13.4731 14.1251 13.5759 14.3849 13.5755 14.6547C13.5834 14.845 13.5459 15.0345 13.4661 15.2074C13.3863 15.3803 13.2664 15.5317 13.1164 15.6491C12.7157 15.9187 12.2363 16.0465 11.7546 16.0121C11.4822 16.0149 11.2103 15.9869 10.9443 15.9285C10.7285 15.8811 10.5174 15.8144 10.3136 15.729C10.1351 15.6518 9.89144 15.5359 9.58246 15.3814C9.33398 15.2489 9.05739 15.1777 8.77579 15.1739C8.52306 15.1636 8.27602 15.2507 8.08573 15.4174C7.99496 15.5038 7.92402 15.6088 7.87781 15.7253C7.8316 15.8418 7.81121 15.9669 7.81806 16.092C7.81238 16.3293 7.88393 16.5619 8.02193 16.755C8.18814 16.9656 8.40307 17.1327 8.64819 17.2419C9.60703 17.6575 10.6464 17.8541 11.6908 17.8176C12.4508 17.8329 13.2072 17.7096 13.9231 17.4538C14.517 17.243 15.0342 16.8591 15.4081 16.3516C15.7752 15.8157 15.9612 15.1764 15.939 14.5271C15.9532 13.9969 15.8205 13.473 15.5555 13.0135C15.2863 12.5763 14.9237 12.2042 14.4936 11.9238C13.9491 11.5725 13.3714 11.2755 12.7688 11.0372C12.7044 11.0056 12.6377 10.9789 12.5693 10.9572C11.9519 10.702 11.4874 10.4972 11.176 10.3427C10.898 10.2124 10.6462 10.0322 10.4331 9.81104C10.2538 9.62281 10.1549 9.37212 10.1574 9.11218C10.1488 8.91418 10.1935 8.71751 10.2869 8.54272C10.3803 8.36792 10.519 8.22142 10.6883 8.11851C11.0897 7.87922 11.5516 7.76106 12.0186 7.77824C12.3769 7.77449 12.734 7.81889 13.0805 7.91024C13.4568 8.01878 13.8251 8.15355 14.1827 8.31358C14.3277 8.38089 14.4855 8.41639 14.6454 8.41771C14.7616 8.42079 14.8772 8.39926 14.9845 8.35451C15.0918 8.30977 15.1884 8.24284 15.268 8.15811C15.3521 8.06616 15.4173 7.95854 15.4598 7.8414C15.5024 7.72425 15.5214 7.59988 15.5159 7.47538C15.5196 7.23573 15.4359 7.00291 15.2805 6.82051C15.0694 6.59881 14.8077 6.43171 14.5178 6.33358C14.2021 6.21763 13.8756 6.13337 13.5432 6.08204C13.0788 6.00587 12.6087 5.9698 12.1381 5.97424C11.4189 5.96999 10.7043 6.09032 10.0261 6.32991C9.40257 6.54042 8.84591 6.91237 8.41279 7.40791C7.99604 7.90136 7.77569 8.53107 7.79386 9.17671C7.77907 9.68546 7.89737 10.1893 8.13706 10.6382Z"/>
</svg>
