<svg width="24" height="24" viewBox="0 0 24 24" fill="#151B1E" xmlns="http://www.w3.org/2000/svg">
<path fill-rule="evenodd" clip-rule="evenodd" d="M6.79369 3.31211C6.79369 4.59077 7.82628 5.62421 9.10388 5.62421H11.4141V3.31211C11.4141 2.03344 10.3815 1 9.10388 1C7.82628 1 6.79369 2.03344 6.79369 3.31211ZM11.4141 9.10989C11.4141 7.83122 10.3815 6.79778 9.10388 6.79778H3.31092C2.03331 6.79778 1.00073 7.83122 1.00073 9.10989C1.00073 10.3886 2.03331 11.422 3.31092 11.422H9.10388C10.3815 11.422 11.4141 10.3886 11.4141 9.10989ZM3.32848 17.2197C4.60608 17.2197 5.63866 16.1863 5.63866 14.9076V12.5955H3.32848C2.05088 12.5955 1.0183 13.629 1.0183 14.9076C1.0183 16.1863 2.05088 17.2197 3.32848 17.2197ZM9.10394 12.5955C7.82634 12.5955 6.79376 13.629 6.79376 14.9076V20.6879C6.79376 21.9666 7.82634 23 9.10394 23C10.3815 23 11.4141 21.9666 11.4141 20.6879V14.9076C11.4141 13.629 10.3815 12.5955 9.10394 12.5955ZM18.3623 9.10989C18.3623 7.83122 19.3948 6.79778 20.6724 6.79778C21.95 6.79778 22.9826 7.83122 22.9826 9.10989C22.9826 10.3886 21.95 11.422 20.6724 11.422H18.3623V9.10989ZM17.2072 9.10989C17.2072 10.3886 16.1746 11.422 14.897 11.422C13.6194 11.422 12.5868 10.3886 12.5868 9.10989V3.31211C12.5868 2.03344 13.6194 1 14.897 1C16.1746 1 17.2072 2.03344 17.2072 3.31211V9.10989ZM17.2072 20.6879C17.2072 19.4092 16.1746 18.3758 14.897 18.3758H12.5868V20.6879C12.5868 21.9666 13.6194 23 14.897 23C16.1746 23 17.2072 21.9666 17.2072 20.6879ZM12.5868 14.9076C12.5868 16.1863 13.6194 17.2197 14.897 17.2197H20.6899C21.9675 17.2197 23.0001 16.1863 23.0001 14.9076C23.0001 13.629 21.9675 12.5955 20.6899 12.5955H14.897C13.6194 12.5955 12.5868 13.629 12.5868 14.9076Z"/>
</svg>
