<svg width="24" height="24" viewBox="0 0 24 24" fill="#151B1E" xmlns="http://www.w3.org/2000/svg">
<path fill-rule="evenodd" clip-rule="evenodd" d="M2 7C2 4.79086 3.79086 3 6 3H18C20.2091 3 22 4.79086 22 7V15C22 17.2091 20.2091 19 18 19H6L3.70711 21.2929C3.07714 21.9229 2 21.4767 2 20.5858V7ZM6 9C6 8.44772 6.44772 8 7 8H17C17.5523 8 18 8.44772 18 9C18 9.55228 17.5523 10 17 10H7C6.44771 10 6 9.55228 6 9ZM6 13C6 12.4477 6.44772 12 7 12H13C13.5523 12 14 12.4477 14 13C14 13.5523 13.5523 14 13 14H7C6.44772 14 6 13.5523 6 13Z"/>
</svg>
