<svg width="24" height="24" viewBox="0 0 24 24" fill="#151B1E" xmlns="http://www.w3.org/2000/svg">
<path fill-rule="evenodd" clip-rule="evenodd" d="M11.9994 4C10.1785 4.00015 8.41216 4.62146 6.99218 5.76128C5.5722 6.9011 4.58354 8.49123 4.18954 10.269C3.79554 12.0467 4.01978 13.9056 4.82521 15.5387C5.63064 17.1717 6.96906 18.4811 8.61936 19.2506C10.2697 20.0201 12.1331 20.2035 13.9017 19.7707C15.6704 19.3378 17.2385 18.3146 18.3469 16.87C19.4554 15.4254 20.0378 13.6458 19.9981 11.8254C19.9584 10.005 19.2988 8.25256 18.1284 6.8577C17.7734 6.43463 17.8286 5.80387 18.2516 5.44887C18.6747 5.09387 19.3055 5.14905 19.6605 5.57213C21.1235 7.3157 21.948 9.50622 21.9976 11.7818C22.0473 14.0573 21.3192 16.2817 19.9337 18.0875C18.5481 19.8932 16.588 21.1723 14.3772 21.7133C12.1663 22.2544 9.83706 22.0251 7.7742 21.0632C5.71133 20.1014 4.0383 18.4646 3.03151 16.4233C2.02472 14.382 1.74442 12.0584 2.23692 9.8362C2.72942 7.61404 3.96524 5.62638 5.74022 4.2016C7.5152 2.77682 9.72312 2.00019 11.9992 2C12.5515 1.99996 12.9992 2.44763 12.9993 2.99992C12.9993 3.5522 12.5516 3.99996 11.9994 4Z"/>
</svg>
