<svg width="24" height="24" viewBox="0 0 24 24" fill="#151B1E" xmlns="http://www.w3.org/2000/svg">
<path fill-rule="evenodd" clip-rule="evenodd" d="M16.7597 1.92488C14.3935 0.807025 11.7093 0.55766 9.1777 1.22049C6.64606 1.88333 4.42849 3.41607 2.91368 5.55005C1.39887 7.68403 0.683472 10.2831 0.892893 12.8917C1.10231 15.5003 2.22319 17.9519 4.05904 19.8169C5.8949 21.6819 8.3286 22.8412 10.9336 23.0917C13.5385 23.3421 16.1485 22.6677 18.3061 21.1867C20.4637 19.7057 22.0311 17.5125 22.7337 14.9916C23.4363 12.4707 23.2292 9.78297 22.1488 7.39945C22.0511 7.18388 22.1466 6.92989 22.3622 6.83217C22.5777 6.73445 22.8317 6.82999 22.9294 7.04557C24.093 9.61243 24.316 12.5069 23.5594 15.2217C22.8027 17.9365 21.1147 20.2984 18.7912 21.8934C16.4676 23.4883 13.6569 24.2146 10.8515 23.9449C8.04618 23.6751 5.42528 22.4266 3.4482 20.4182C1.47112 18.4097 0.264031 15.7695 0.0385012 12.9603C-0.187029 10.151 0.583394 7.35204 2.21473 5.0539C3.84607 2.75577 6.23422 1.10512 8.9606 0.391302C11.687 -0.322519 14.5776 -0.0539725 17.1258 1.14987C17.3399 1.25098 17.4314 1.50643 17.3303 1.72044C17.2292 1.93445 16.9737 2.02598 16.7597 1.92488Z"/>
</svg>
