<svg width="24" height="24" viewBox="0 0 24 24" fill="#151B1E" xmlns="http://www.w3.org/2000/svg">
<path fill-rule="evenodd" clip-rule="evenodd" d="M3 7C3 4.79086 4.79086 3 7 3H17C19.2091 3 21 4.79086 21 7V13H19.5C17.8431 13 16.5 14.3431 16.5 16V16.5H16C14.3431 16.5 13 17.8431 13 19.5V21H7C4.79086 21 3 19.2091 3 17V7ZM9.76003 15.28L7.69003 13.2C7.31003 12.81 7.31003 12.19 7.69003 11.8C8.08003 11.41 8.71003 11.41 9.10003 11.8L10.46 13.17L14.88 8.71001C15.27 8.32001 15.9 8.32001 16.29 8.71001C16.67 9.10001 16.67 9.72001 16.29 10.11L11.16 15.28C10.79 15.68 10.15 15.68 9.76003 15.28ZM18.5 16C18.5 15.4477 18.9477 15 19.5 15C20.0523 15 20.5 15.4477 20.5 16V18.5H23C23.5523 18.5 24 18.9477 24 19.5C24 20.0523 23.5523 20.5 23 20.5H20.5V23C20.5 23.5523 20.0523 24 19.5 24C18.9477 24 18.5 23.5523 18.5 23V20.5H16C15.4477 20.5 15 20.0523 15 19.5C15 18.9477 15.4477 18.5 16 18.5H18.5V16Z"/>
</svg>
