<svg width="24" height="24" viewBox="0 0 24 24" fill="#151B1E" xmlns="http://www.w3.org/2000/svg">
  <path d="M8 2C6.89543 2 6 2.89543 6 4H18C19.1046 4 20 4.89543 20 6V18C21.1046 18 22 17.1046 22 16V4C22 2.89543 21.1046 2 20 2H8ZM16 6H4C2.9 6 2 6.9 2 8V20C2 21.1 2.9 22 4 22H16C17.1 22 18 21.1 18 20V8C18 6.9 17.1 6 16 6ZM7.76 17.28L5.69 15.2C5.31 14.81 5.31 14.19 5.69 13.8C6.08 13.41 6.71 13.41 7.1 13.8L8.46 15.17L12.88 10.71C13.27 10.32 13.9 10.32 14.29 10.71C14.67 11.1 14.67 11.72 14.29 12.11L9.16 17.28C8.79 17.68 8.15 17.68 7.76 17.28Z"/>
</svg>
