<svg width="24" height="24" viewBox="0 0 24 24" fill="#151B1E" xmlns="http://www.w3.org/2000/svg">
<path fill-rule="evenodd" clip-rule="evenodd" d="M9.78845 5.57273H11.6354C12.4641 5.57273 13.1358 6.2445 13.1358 7.07314V8.44013C14.848 8.36449 16.2129 6.95247 16.2129 5.22166C16.2129 3.44239 14.7705 2 12.9912 2C11.2119 2 9.76954 3.44239 9.76954 5.22166C9.76954 5.34029 9.77595 5.45743 9.78845 5.57273ZM19.9301 8.4433C21.1619 8.4433 22.1605 7.44473 22.1605 6.21292C22.1605 4.98112 21.1619 3.98255 19.9301 3.98255C18.6983 3.98255 17.6997 4.98112 17.6997 6.21292C17.6997 7.44473 18.6983 8.4433 19.9301 8.4433ZM12.7436 21.8256C10.4162 21.7686 8.45562 20.297 7.66461 18.2528H11.6355C12.4641 18.2528 13.1359 17.5811 13.1359 16.7524V9.43457H17.2871C17.801 9.44729 18.2075 9.87377 18.1956 10.3877V16.1069C18.2674 19.1909 15.8275 21.7501 12.7436 21.8256ZM18.6463 18.8111C18.9573 17.9795 19.1218 17.0568 19.1027 16.0891V9.53106C19.1033 9.49857 19.1027 9.46639 19.1009 9.43457H21.7143C22.2344 9.43457 22.656 9.85619 22.656 10.3763V15.3907C22.656 17.3022 21.1065 18.8517 19.195 18.8517H19.1786C18.9976 18.8517 18.8198 18.8379 18.6463 18.8111ZM2.25225 6.46075H11.3393C11.8411 6.46075 12.2478 6.86751 12.2478 7.36926V16.4563C12.2478 16.9581 11.8411 17.3648 11.3393 17.3648H2.25225C1.7505 17.3648 1.34375 16.9581 1.34375 16.4563V7.36926C1.34375 6.86751 1.75051 6.46075 2.25225 6.46075ZM9.18692 9.91933H7.37039V14.8658H6.21308V9.91933H4.40499V8.95978H9.18692V9.91933Z"/>
</svg>
