<svg width="24" height="24" viewBox="0 0 24 24" fill="#151B1E" xmlns="http://www.w3.org/2000/svg">
<path fill-rule="evenodd" clip-rule="evenodd" d="M3.3749 10.7489C8.74359 8.20867 12.3236 6.534 14.1148 5.72489C19.2292 3.4147 20.2919 3.01339 20.9846 3.00014C21.1369 2.99723 21.4776 3.03823 21.6982 3.23267C21.8845 3.39685 21.9358 3.61863 21.9603 3.77429C21.9848 3.92995 22.0154 4.28455 21.9911 4.56163C21.714 7.7241 20.5147 15.3986 19.9046 18.9406C19.6465 20.4394 19.1382 20.9419 18.6461 20.9911C17.5766 21.098 16.7645 20.2235 15.7287 19.4861C14.1078 18.3323 13.1921 17.614 11.6188 16.488C9.80053 15.1868 10.9792 14.4716 12.0154 13.3027C12.2866 12.9969 16.9987 8.34226 17.0899 7.92001C17.1013 7.86721 17.1119 7.67036 17.0042 7.56642C16.8965 7.46248 16.7376 7.49802 16.6229 7.52629C16.4604 7.56636 13.871 9.42501 8.85486 13.1022C8.11988 13.6503 7.45416 13.9174 6.8577 13.9034C6.20015 13.888 4.93528 13.4996 3.99498 13.1677C2.84166 12.7606 1.92503 12.5453 2.00485 11.8539C2.04642 11.4937 2.5031 11.1254 3.3749 10.7489Z"/>
</svg>
