<svg width="24" height="24" viewBox="0 0 24 24" fill="#151B1E" xmlns="http://www.w3.org/2000/svg">
<path fill-rule="evenodd" clip-rule="evenodd" d="M23 12C23 18.0665 18.0665 23 12 23C5.9335 23 1 17.9977 1 11.9313C1 5.86475 5.9335 1 12 1V3.75C7.4185 3.75 3.75 7.34975 3.75 11.9313C3.75 16.5128 7.4185 20.2362 12 20.2362C16.5815 20.2362 20.25 16.5815 20.25 12H23ZM13.7325 13.87L21.35 6.5L19.15 4.3L11.989 11.6975L9.25 8.9585L7.3085 10.9L11.0925 14.5685C11.3345 14.838 11.6645 14.992 12.0275 14.9975H12.0605C12.407 14.9975 12.737 14.8655 12.9845 14.618L13.7325 13.87Z"/>
</svg>
