<svg width="24" height="24" viewBox="0 0 24 24" fill="#151B1E" xmlns="http://www.w3.org/2000/svg">
<path fill-rule="evenodd" clip-rule="evenodd" d="M4.49984 2H19.5002C20.8752 2 22 3.125 22 4.5V19.5C22 20.875 20.8752 22 19.5002 22H4.49984C3.12477 22 2 20.875 2 19.5V16.0969C2.82392 16.5831 4.8756 17.7906 5.37245 18.075C5.66893 18.2438 5.95294 18.24 6.24006 18.0731H6.23944C6.39793 17.9805 8.02836 17.0315 9.7793 16.0124L9.78383 16.0097L9.78442 16.0094C11.8936 14.7817 14.1758 13.4534 14.2695 13.3981C14.4412 13.2981 14.4505 12.9906 14.257 12.8794L14.2343 12.8663L14.2341 12.8662C14.0371 12.7528 13.6944 12.5557 13.5642 12.4781C13.3708 12.3716 13.1358 12.3744 12.945 12.4856C12.8489 12.5419 6.43293 16.2731 6.21884 16.3956C5.96105 16.5431 5.64459 16.5456 5.38868 16.3956L2 14.4044V12.6969C2.82392 13.1831 4.8756 14.3906 5.37245 14.675C5.66893 14.8438 5.95294 14.84 6.24006 14.6731H6.23944C6.39783 14.5805 8.02634 13.6327 9.77605 12.6143L9.78242 12.6105L9.78507 12.609C11.8941 11.3815 14.1758 10.0534 14.2695 9.99813C14.4412 9.89813 14.4505 9.59063 14.257 9.47938L14.2343 9.4663C14.0373 9.35292 13.6945 9.15568 13.5642 9.07813C13.3708 8.97159 13.1358 8.97444 12.945 9.08563C12.8489 9.14188 6.43293 12.8731 6.21884 12.9956C5.96105 13.1431 5.64459 13.1456 5.38868 12.9956L2 11.0044V9.49687C2.82392 9.98312 4.8756 11.1906 5.37245 11.475C5.66893 11.6437 5.95294 11.64 6.24006 11.4731H6.23944C6.39805 11.3804 8.03084 10.43 9.78331 9.41002L9.7842 9.4095C11.8935 8.18181 14.1758 6.85342 14.2695 6.79812C14.4412 6.69812 14.4505 6.39062 14.257 6.27937L14.2343 6.26627C14.0372 6.15288 13.6945 5.95567 13.5642 5.87812C13.3708 5.77159 13.1358 5.77443 12.945 5.88562C12.8489 5.94187 6.43293 9.67312 6.21884 9.79562C5.96105 9.94312 5.64459 9.94562 5.38868 9.79562L2 7.80437V4.5C2.0048 3.12007 3.12171 2.00309 4.49984 2Z"/>
</svg>
