<svg width="24" height="24" viewBox="0 0 24 24" fill="#151B1E" xmlns="http://www.w3.org/2000/svg">
<path fill-rule="evenodd" clip-rule="evenodd" d="M9.5 3C9.5 2.44772 9.05228 2 8.5 2C7.94772 2 7.5 2.44772 7.5 3V4H3C2.44771 4 2 4.44772 2 5C2 5.55228 2.44771 6 3 6H4.04938C4.30397 8.54491 5.51824 10.5913 7.11218 12.3988C6.2712 13.2099 5.34393 14.012 4.37016 14.8542C4.03231 15.1464 3.68887 15.4435 3.3415 15.7474C2.92586 16.1111 2.88374 16.7429 3.24742 17.1585C3.61111 17.5741 4.24287 17.6163 4.6585 17.2526C4.98274 16.9689 5.31073 16.6855 5.63946 16.4014L5.63951 16.4014C6.61222 15.5609 7.59141 14.7148 8.49891 13.8389C9.09524 14.4139 9.71691 14.9697 10.3413 15.5163C10.7569 15.8801 11.3886 15.8381 11.7524 15.4226C12.1162 15.007 12.0742 14.3752 11.6587 14.0115C11.0332 13.4639 10.4394 12.9293 9.88806 12.3969C10.0186 12.2491 10.1461 12.1002 10.2704 11.9501C11.6727 10.2556 12.7168 8.33903 12.9507 6H14C14.5523 6 15 5.55228 15 5C15 4.44772 14.5523 4 14 4H9.5V3ZM8.50059 10.9456C7.19172 9.43454 6.29798 7.86512 6.0621 6H10.9379C10.7161 7.75202 9.91348 9.24442 8.72961 10.6749C8.65456 10.7656 8.5782 10.8558 8.50059 10.9456ZM14.7168 17L16.5 12.6411L18.2832 17H14.7168ZM20.0745 21.3786L19.1014 19H13.8986L12.9256 21.3786C12.7165 21.8898 12.1326 22.1347 11.6214 21.9256C11.1102 21.7164 10.8654 21.1325 11.0745 20.6214L15.3431 10.187C15.7667 9.15137 17.2333 9.15138 17.657 10.187L21.9256 20.6214C22.1347 21.1325 21.8898 21.7164 21.3787 21.9256C20.8675 22.1347 20.2836 21.8898 20.0745 21.3786Z"/>
</svg>
