<svg width="24" height="24" viewBox="0 0 24 24" fill="#151B1E" xmlns="http://www.w3.org/2000/svg">
<path d="M7.91874 21C16.221 21 20.7612 14.0756 20.7612 8.07101C20.7612 7.87433 20.7573 7.67854 20.7485 7.48364C21.6298 6.84223 22.3958 6.0418 23 5.13062C22.1913 5.49252 21.3209 5.73615 20.4079 5.846C21.3398 5.28344 22.0553 4.39353 22.3928 3.33266C21.5207 3.85315 20.5549 4.23144 19.5266 4.43567C18.703 3.55243 17.5303 3 16.2319 3C13.7393 3 11.718 5.035 11.718 7.54343C11.718 7.90001 11.7576 8.24686 11.835 8.57955C8.08364 8.38952 4.75719 6.58134 2.53094 3.83188C2.1433 4.50341 1.91978 5.28346 1.91978 6.11579C1.91978 7.6923 2.71664 9.08405 3.9284 9.89824C3.18787 9.87521 2.49222 9.67055 1.8842 9.32992C1.88354 9.34898 1.88353 9.36757 1.88353 9.38795C1.88353 11.5886 3.43939 13.426 5.5047 13.8423C5.12542 13.9464 4.72637 14.0023 4.3145 14.0023C4.0241 14.0023 3.74118 13.9735 3.46618 13.9203C4.04082 15.7258 5.70712 17.0397 7.68266 17.0764C6.13781 18.2954 4.19173 19.0214 2.07666 19.0214C1.71278 19.0214 1.3533 19.0006 1 18.9585C2.99762 20.2476 5.3696 20.9997 7.91898 20.9997"/>
</svg>
