<svg width="24" height="24" viewBox="0 0 24 24" fill="#323232" xmlns="http://www.w3.org/2000/svg">
<path d="M3.59116 21.9925H20.4088C22.1286 21.9925 23.2006 20.1276 22.3408 18.6423L13.9319 4.11392C13.072 2.62869 10.928 2.62869 10.0681 4.11392L1.65924 18.6423C0.799376 20.1276 1.87142 21.9925 3.59116 21.9925ZM12 15.1755C11.3858 15.1755 10.8833 14.673 10.8833 14.0588V9.82536C10.8833 9.21117 11.3858 8.70865 12 8.70865C12.6142 8.70865 13.1167 9.21117 13.1167 9.82536V14.0588C13.1167 14.673 12.6142 15.1755 12 15.1755ZM13.1167 18.6423H10.8833V16.4089H13.1167V18.6423Z"/>
</svg>
