<svg width="24" height="24" viewBox="0 0 24 24" fill="#151B1E" xmlns="http://www.w3.org/2000/svg">
  <path fill-rule="evenodd" clip-rule="evenodd" d="M23.8998 13.9992C22.6372 15.2369 20.9077 16 19 16C15.134 16 12 12.866 12 9C12 7.05419 12.7939 5.29381 14.0755 4.02513C13.8859 4.00849 13.6939 4 13.5 4C10.4091 4 7.82213 6.15737 7.16268 9.04845C6.94642 9.01653 6.72514 9 6.5 9C4.01472 9 2 11.0147 2 13.5C2 13.7223 2.01612 13.9408 2.04725 14.1545C0.857438 14.5527 0 15.6762 0 17C0 18.6569 1.34315 20 3 20H19C21.7614 20 24 17.7614 24 15C24 14.6572 23.9655 14.3226 23.8998 13.9992Z"/>
  <path class="spin" fill-rule="evenodd" clip-rule="evenodd" d="M16 9C16 9.59334 16.1759 10.1734 16.5056 10.6667C16.8352 11.1601 17.3038 11.5446 17.8519 11.7716C18.4001 11.9987 19.0033 12.0581 19.5853 11.9424C20.1672 11.8266 20.7018 11.5409 21.1213 11.1213C21.5409 10.7018 21.8266 10.1672 21.9424 9.58527C22.0581 9.00333 21.9987 8.40013 21.7716 7.85195C21.5446 7.30377 21.1601 6.83523 20.6667 6.50559C20.1734 6.17594 19.5933 6 19 6C18.4477 6 18 5.55228 18 5C18 4.44771 18.4477 4 19 4C19.9889 4 20.9556 4.29324 21.7779 4.84265C22.6001 5.39206 23.241 6.17295 23.6194 7.08658C23.9978 8.00021 24.0969 9.00554 23.9039 9.97545C23.711 10.9454 23.2348 11.8363 22.5355 12.5355C21.8363 13.2348 20.9454 13.711 19.9755 13.9039C19.0055 14.0969 18.0002 13.9978 17.0866 13.6194C16.173 13.241 15.3921 12.6001 14.8427 11.7778C14.2932 10.9556 14 9.9889 14 9C14 8.44771 14.4477 8 15 8C15.5523 8 16 8.44771 16 9Z"/>
</svg>
