<svg width="24" height="24" viewBox="0 0 24 24" fill="#151B1E" xmlns="http://www.w3.org/2000/svg">
<path d="M16.0017 4.00524C15.9519 4.00175 15.9019 4 15.852 4L15.8479 4L15.8438 4.00002L15.8353 4.00006C15.8295 4.00011 15.8235 4.00017 15.8172 4.00027C15.8048 4.00046 15.7913 4.00076 15.777 4.00119C15.7484 4.00207 15.7162 4.00351 15.6806 4.00576C15.6094 4.01025 15.5243 4.01801 15.4271 4.03106C15.2329 4.05714 14.9882 4.10465 14.7085 4.19061C14.144 4.36407 13.4493 4.69068 12.7555 5.29028C12.7212 5.31999 12.687 5.35021 12.6529 5.38097C13.5322 6.43757 14.2432 7.9375 14.6353 10.0192C14.9652 9.13854 15.34 8.71991 15.5566 8.53267C15.7196 8.39183 15.853 8.32812 15.9284 8.29988C16.2754 8.33834 16.3201 8.38812 16.3384 8.40857C16.3404 8.41077 16.3421 8.41266 16.3438 8.41413C16.5135 8.55948 16.8578 8.98163 17.5224 10.3353C18.0438 11.3975 19.3274 11.8358 20.3894 11.3142C21.4513 10.7927 21.8895 9.50884 21.3681 8.44666C20.6956 7.07682 20.0301 5.92991 19.1307 5.15951C18.0823 4.26138 16.9687 4.07303 16.0017 4.00524Z"/>
<path d="M9.38108 14.1818C9.73157 16.243 10.4235 17.7495 11.3317 18.8053C11.1596 18.9513 10.9821 19.0848 10.7997 19.2063C10.0059 19.7348 9.2287 19.9571 8.6305 20.0424C8.33261 20.0849 8.07666 20.0939 7.87938 20.0902C7.7804 20.0883 7.69505 20.0832 7.62523 20.0773C7.59028 20.0743 7.55908 20.0711 7.53188 20.068C7.51827 20.0664 7.50564 20.0648 7.49403 20.0633L7.48603 20.0623L7.47736 20.0611L7.46959 20.06L7.46585 20.0595L7.46221 20.059C7.40706 20.051 7.35223 20.041 7.29787 20.0288C4.62521 19.4286 3.22861 17.447 2.4504 15.414C1.77309 13.6446 1.42772 11.483 1.114 9.51941C1.08333 9.32748 1.05297 9.13743 1.02263 8.94983C0.833695 7.78171 1.6273 6.68157 2.79519 6.4926C3.96308 6.30364 5.06301 7.0974 5.25194 8.26552C5.27712 8.42123 5.30187 8.57491 5.32629 8.72656C5.66576 10.8346 5.94222 12.5515 6.45148 13.8818C6.91682 15.0975 7.42284 15.5962 8.04793 15.7967C8.13369 15.7818 8.26912 15.7434 8.42564 15.6392C8.60466 15.52 9.02881 15.166 9.38108 14.1818Z"/>
<path d="M18.195 12.1196C18.1533 12.1078 18.112 12.0947 18.0711 12.0804C17.9219 12.7442 17.7542 13.3445 17.5485 13.8818C17.0832 15.0975 16.5772 15.5962 15.9521 15.7967C15.8663 15.7818 15.7309 15.7434 15.5744 15.6392C15.3017 15.4576 14.4602 14.7314 14.1704 12.0624C13.7968 8.62249 12.6601 6.51369 11.2445 5.29028C10.5507 4.69068 9.85598 4.36407 9.29151 4.19061C9.01181 4.10465 8.76716 4.05714 8.57293 4.03106C8.4757 4.01801 8.3906 4.01025 8.31941 4.00576C8.28379 4.00351 8.25158 4.00207 8.22297 4.00119C8.20867 4.00076 8.19526 4.00046 8.18277 4.00027C8.17652 4.00017 8.1705 4.00011 8.16472 4.00006L8.15621 4.00002L8.15209 4C8.15007 4 8.16472 4.00006 8.16472 4.00006L8.14806 4C8.09809 4 8.04813 4.00175 7.99828 4.00524C7.03134 4.07303 5.91773 4.26138 4.86928 5.15951C4.63479 5.36038 4.4162 5.58684 4.20924 5.83617C5.06726 6.00142 5.77127 6.68567 5.91892 7.59854C5.9441 7.75424 5.96885 7.90793 5.99327 8.05958C6.13364 8.93129 6.26325 9.73613 6.40299 10.4744C6.42935 10.4293 6.45426 10.3829 6.47764 10.3353C7.14217 8.98163 7.4865 8.55948 7.65618 8.41413C7.6579 8.41266 7.65958 8.41078 7.66157 8.40857C7.67992 8.38812 7.7246 8.33834 8.07159 8.29988C8.14699 8.32812 8.28041 8.39183 8.44337 8.53267C8.80715 8.84706 9.61673 9.81388 9.91115 12.5252C10.2893 16.0075 11.5439 18.1034 13.2003 19.2063C13.9941 19.7348 14.7713 19.9571 15.3695 20.0424C15.6674 20.0849 15.9234 20.0939 16.1206 20.0902C16.2196 20.0883 16.305 20.0832 16.3748 20.0773C16.4097 20.0743 16.4409 20.0711 16.4681 20.068C16.4746 20.0672 16.4808 20.0665 16.4869 20.0657C16.4935 20.0649 16.4999 20.0641 16.506 20.0633L16.514 20.0623L16.5227 20.0611L16.5304 20.06L16.5342 20.0595L16.5378 20.059C16.593 20.051 16.6478 20.041 16.7021 20.0288C19.3748 19.4286 20.7714 17.447 21.5496 15.414C22.2269 13.6446 22.5723 11.483 22.886 9.5194L22.8861 9.51875C22.9168 9.32704 22.9471 9.13721 22.9774 8.94983C23.1663 7.78171 22.3727 6.68157 21.2048 6.4926C21.1941 6.49086 21.1833 6.48921 21.1726 6.48764C21.4965 7.03859 21.8084 7.63261 22.1214 8.26151C22.8336 9.69242 22.2351 11.4219 20.7846 12.1245C19.9353 12.5359 18.9821 12.504 18.195 12.1196Z"/>
</svg>
