<svg width="24" height="24" viewBox="0 0 24 24" fill="#151B1E" xmlns="http://www.w3.org/2000/svg">
<path fill-rule="evenodd" clip-rule="evenodd" d="M3 2C1.89543 2 1 2.89543 1 4V20C1 21.1046 1.89543 22 3 22H21C22.1046 22 23 21.1046 23 20V4C23 2.89543 22.1046 2 21 2H3ZM3.2002 18.7778V8H20.8002V18.7778C20.8002 19.3301 20.3525 19.7778 19.8002 19.7778H4.2002C3.64791 19.7778 3.2002 19.3301 3.2002 18.7778ZM14 6C14.5523 6 15 5.55228 15 5C15 4.44772 14.5523 4 14 4C13.4477 4 13 4.44772 13 5C13 5.55228 13.4477 6 14 6ZM17 6C17.5523 6 18 5.55228 18 5C18 4.44772 17.5523 4 17 4C16.4477 4 16 4.44772 16 5C16 5.55228 16.4477 6 17 6ZM21 5C21 5.55228 20.5523 6 20 6C19.4477 6 19 5.55228 19 5C19 4.44772 19.4477 4 20 4C20.5523 4 21 4.44772 21 5Z"/>
</svg>
