<svg width="24" height="24" viewBox="0 0 24 24" fill="#151B1E" xmlns="http://www.w3.org/2000/svg">
<path d="M16.5938 17.4669C16.5938 17.6513 16.5205 17.8281 16.3902 17.9584C16.2599 18.0888 16.0831 18.162 15.8987 18.162H4.43574C3.52447 18.162 2.65053 17.8 2.00617 17.1557C1.36181 16.5113 0.999817 15.6374 0.999817 14.7261V6.53307C0.999817 6.34872 1.07305 6.17192 1.20341 6.04156C1.33377 5.9112 1.51057 5.83797 1.69492 5.83797H13.1579C14.0692 5.83797 14.9431 6.19996 15.5874 6.8443C16.2318 7.48865 16.5938 8.36257 16.5938 9.27381V17.4669Z"/>
<path d="M23 17.7096C23 17.7676 22.984 17.8245 22.9538 17.8741C22.9237 17.9237 22.8804 17.964 22.8289 17.9907C22.7773 18.0173 22.7194 18.0293 22.6615 18.0252C22.6036 18.0212 22.5479 18.0013 22.5006 17.9677L17.5013 14.4252V9.57471L22.5006 6.03222C22.5479 5.99867 22.6036 5.9788 22.6615 5.97477C22.7194 5.97074 22.7773 5.9827 22.8288 6.00936C22.8804 6.03602 22.9236 6.07634 22.9538 6.12591C22.984 6.17549 23 6.2324 23 6.29044V17.7096Z"/>
</svg>
