{
	"asset":{
		"generator":"Khronos glTF Blender I/O v3.5.30",
		"version":"2.0"
	},
	"scene":0,
	"scenes":[
		{
			"name":"Scene",
			"nodes":[
				0
			]
		}
	],
	"nodes":[
		{
			"mesh":0,
			"name":"Cube"
		}
	],
	"meshes":[
		{
			"name":"Cube.001",
			"primitives":[
				{
					"attributes":{
						"POSITION":0,
						"TEXCOORD_0":1,
						"NORMAL":2
					},
					"indices":3
				}
			]
		}
	],
	"accessors":[
		{
			"bufferView":0,
			"componentType":5126,
			"count":202,
			"max":[
				6.722936630249023,
				1.179768443107605,
				10.803844451904297
			],
			"min":[
				-7.710278511047363,
				-1.3704254627227783,
				-11.047176361083984
			],
			"type":"VEC3"
		},
		{
			"bufferView":1,
			"componentType":5126,
			"count":202,
			"type":"VEC2"
		},
		{
			"bufferView":2,
			"componentType":5126,
			"count":202,
			"type":"VEC3"
		},
		{
			"bufferView":3,
			"componentType":5123,
			"count":420,
			"type":"SCALAR"
		}
	],
	"bufferViews":[
		{
			"buffer":0,
			"byteLength":2424,
			"byteOffset":0,
			"target":34962
		},
		{
			"buffer":0,
			"byteLength":1616,
			"byteOffset":2424,
			"target":34962
		},
		{
			"buffer":0,
			"byteLength":2424,
			"byteOffset":4040,
			"target":34962
		},
		{
			"buffer":0,
			"byteLength":840,
			"byteOffset":6464,
			"target":34963
		}
	],
	"buffers":[
		{
			"byteLength":7304,
			"uri":"data:application/octet-stream;base64,"
		}
	]
}
